<svg xmlns="http://www.w3.org/2000/svg" width="257" height="256" fill="none" viewBox="0 0 257 256"><rect width="240" height="240" fill="#7338e2" rx="120"/><path fill="#000" d="M211.679 135.057c-9.005 0-13.597-6.527-15.315-15.394-2.488-12.849-6.812-24.994-11.937-37.11-2.636-6.235-7.464-20.546-15.432-22.185-9.065-1.873-17.062 3.014-27.4 23.735-8.501 17.092-14.248 29.004-14.248 29.004v.117l-5.835-.059h-2.933s-.148 0-.148.03l-5.835.058v-.117s-5.747-11.941-14.248-29.003c-10.308-20.75-18.335-25.609-27.4-23.736-7.967 1.64-12.796 15.98-15.432 22.185-5.124 12.116-9.45 24.232-11.937 37.11-1.718 8.868-6.28 15.365-15.314 15.394-2.31 0-3.851 2.4-3.051 4.537 1.925 5.151 7.85 8.428 12.796 10.331-2.222.585-8.857-.761-9.153 2.575-.237 2.722 6.694 5.473 8.56 6.351 17.447 8.4 33.502 23.472 54.148 20.809 8.975-1.171 15.521-7.492 22.867-11.414a11.9 11.9 0 0 1 11.138 0c7.346 3.922 13.892 10.243 22.867 11.414 20.646 2.663 36.701-12.409 54.148-20.809 1.866-.907 8.768-3.629 8.56-6.351-.266-3.307-6.901-1.99-9.153-2.575 4.947-1.903 10.871-5.18 12.797-10.331.8-2.137-.77-4.508-3.051-4.537zm-146.24 4.419c-.266-2.78 5.776-4.917 7.968-5.268 13.034-2.166 30.303 2.927 34.509 16.419-11.967 10.916-36.612 3.395-42.477-11.122zm66.559 11.151c4.206-13.492 21.475-18.585 34.508-16.419 2.192.351 8.235 2.488 7.968 5.268-5.894 14.517-30.509 22.067-42.476 11.122z"/><path fill="url(#a)" d="M211.679 135.057c-9.005 0-13.597-6.527-15.315-15.394-2.488-12.849-6.812-24.994-11.937-37.11-2.636-6.235-7.464-20.546-15.432-22.185-9.065-1.873-17.062 3.014-27.4 23.735-8.501 17.092-14.248 29.004-14.248 29.004v.117l-5.835-.059h-2.933s-.148 0-.148.03l-5.835.058v-.117s-5.747-11.941-14.248-29.003c-10.308-20.75-18.335-25.609-27.4-23.736-7.967 1.64-12.796 15.98-15.432 22.185-5.124 12.116-9.45 24.232-11.937 37.11-1.718 8.868-6.28 15.365-15.314 15.394-2.31 0-3.851 2.4-3.051 4.537 1.925 5.151 7.85 8.428 12.796 10.331-2.222.585-8.857-.761-9.153 2.575-.237 2.722 6.694 5.473 8.56 6.351 17.447 8.4 33.502 23.472 54.148 20.809 8.975-1.171 15.521-7.492 22.867-11.414a11.9 11.9 0 0 1 11.138 0c7.346 3.922 13.892 10.243 22.867 11.414 20.646 2.663 36.701-12.409 54.148-20.809 1.866-.907 8.768-3.629 8.56-6.351-.266-3.307-6.901-1.99-9.153-2.575 4.947-1.903 10.871-5.18 12.797-10.331.8-2.137-.77-4.508-3.051-4.537zm-146.24 4.419c-.266-2.78 5.776-4.917 7.968-5.268 13.034-2.166 30.303 2.927 34.509 16.419-11.967 10.916-36.612 3.395-42.477-11.122zm66.559 11.151c4.206-13.492 21.475-18.585 34.508-16.419 2.192.351 8.235 2.488 7.968 5.268-5.894 14.517-30.509 22.067-42.476 11.122z"/><mask id="b" width="125" height="125" x="132" y="129" maskUnits="userSpaceOnUse" style="mask-type:luminance"><path fill="#fff" d="M255 129H134a2 2 0 0 0-2 2v121a2 2 0 0 0 2 2h121a2 2 0 0 0 2-2V131a2 2 0 0 0-2-2"/></mask><g mask="url(#b)"><path fill="url(#c)" d="M249.911 172.219c-2.543-6.135-7.696-12.757-11.742-14.849 3.293 6.471 5.198 12.962 5.926 17.805 0 0 0 .034.012.097-6.618-16.535-17.842-23.204-27.007-37.721a63 63 0 0 1-1.381-2.249 17 17 0 0 1-.643-1.22c-.38-.734-.673-1.51-.875-2.312a.15.15 0 0 0-.035-.104.15.15 0 0 0-.096-.054.2.2 0 0 0-.11 0l-.027.017c-.014 0-.029.017-.043.022l.024-.032c-14.704 8.631-19.693 24.598-20.151 32.588a29.26 29.26 0 0 0-16.122 6.222 17 17 0 0 0-1.515-1.147 27.25 27.25 0 0 1-.163-14.339c-6.014 2.746-10.69 7.079-14.091 10.914h-.026c-2.322-2.946-2.158-12.664-2.027-14.693-.027-.126-1.729.887-1.948 1.04a42.6 42.6 0 0 0-5.722 4.912 51 51 0 0 0-5.466 6.569 49.6 49.6 0 0 0-7.855 17.775q-.039.192-.078.389c-.109.515-.506 3.1-.577 3.661v.13a56 56 0 0 0-.965 8.094v.3c0 32.398 26.209 58.664 58.536 58.664 28.953 0 52.991-21.066 57.699-48.738.098-.75.178-1.506.266-2.263 1.164-10.062-.129-20.637-3.798-29.478m-67.469 45.921c.273.129.531.273.811.4l.039.025q-.422-.206-.847-.425zm61.67-42.841v-.056.064z"/><path fill="url(#d)" d="M249.911 172.219c-2.543-6.135-7.697-12.757-11.742-14.849 3.293 6.471 5.197 12.962 5.926 17.805v.119c5.524 15.008 2.513 30.269-1.822 39.594-6.708 14.427-22.947 29.215-48.369 28.495-27.443-.781-51.637-21.215-56.155-47.957-.823-4.221 0-6.362.414-9.786-.504 2.638-.697 3.402-.947 8.094v.3c0 32.398 26.208 58.664 58.535 58.664 28.953 0 52.991-21.066 57.699-48.738.098-.75.178-1.506.266-2.263 1.157-10.062-.137-20.637-3.805-29.478"/><path fill="url(#e)" d="M249.911 172.219c-2.543-6.135-7.697-12.757-11.742-14.849 3.293 6.471 5.197 12.962 5.926 17.805v.119c5.524 15.008 2.513 30.269-1.822 39.594-6.708 14.427-22.947 29.215-48.369 28.495-27.443-.781-51.637-21.215-56.155-47.957-.823-4.221 0-6.362.414-9.786-.504 2.638-.697 3.402-.947 8.094v.3c0 32.398 26.208 58.664 58.535 58.664 28.953 0 52.991-21.066 57.699-48.738.098-.75.178-1.506.266-2.263 1.157-10.062-.137-20.637-3.805-29.478"/><path fill="url(#f)" d="M221.465 179.112c.129.091.244.181.365.271a31.9 31.9 0 0 0-5.436-7.108c-18.195-18.235-4.769-39.54-2.507-40.624l.025-.032c-14.705 8.632-19.693 24.599-20.151 32.588.682-.046 1.362-.105 2.056-.105 10.973 0 20.531 6.049 25.648 15.01"/><path fill="url(#g)" d="M195.853 182.754c-.095 1.465-5.239 6.494-7.039 6.494-16.646 0-19.347 10.091-19.347 10.091.731 8.5 6.64 15.498 13.789 19.201.326.169.655.32.974.471.572.245 1.147.489 1.72.706a26 26 0 0 0 7.616 1.465c29.175 1.371 34.831-34.961 13.774-45.512 5.39-.939 10.988 1.236 14.113 3.435-5.115-8.961-14.675-15.01-25.648-15.01-.695 0-1.374.059-2.056.105a29.25 29.25 0 0 0-16.108 6.23c.894.759 1.903 1.769 4.024 3.864 3.98 3.935 14.166 7.984 14.188 8.46"/><path fill="url(#h)" d="M195.853 182.754c-.095 1.465-5.239 6.494-7.039 6.494-16.646 0-19.347 10.091-19.347 10.091.731 8.5 6.64 15.498 13.789 19.201.326.169.655.32.974.471.572.245 1.147.489 1.72.706a26 26 0 0 0 7.616 1.465c29.175 1.371 34.831-34.961 13.774-45.512 5.39-.939 10.988 1.236 14.113 3.435-5.115-8.961-14.675-15.01-25.648-15.01-.695 0-1.374.059-2.056.105a29.25 29.25 0 0 0-16.108 6.23c.894.759 1.903 1.769 4.024 3.864 3.98 3.935 14.166 7.984 14.188 8.46"/><path fill="url(#i)" d="M174.921 168.479c.474.308.864.566 1.217.803a27.25 27.25 0 0 1-.163-14.339c-6.014 2.747-10.69 7.079-14.09 10.914.275-.007 8.766-.161 13.036 2.622"/><path fill="url(#j)" d="M137.751 195.426c4.518 26.742 28.712 47.176 56.174 47.957 25.422.72 41.651-14.068 48.369-28.495 4.335-9.327 7.346-24.586 1.822-39.594v-.112c0 .015 0 .034.012.098 2.075 13.589-4.82 26.754-15.601 35.656q-.017.037-.031.076c-21.009 17.143-41.11 10.343-45.181 7.567a35 35 0 0 1-.85-.425c-12.249-5.858-17.308-17.05-16.224-26.641-10.34 0-13.866-8.744-13.866-8.744s9.284-6.635 21.522-.864c11.333 5.346 21.977.866 21.977.864-.022-.476-10.208-4.538-14.181-8.461-2.121-2.094-3.13-3.105-4.024-3.864a17 17 0 0 0-1.515-1.147c-.348-.244-.73-.489-1.217-.803-4.27-2.783-12.761-2.63-13.041-2.622h-.027c-2.321-2.947-2.158-12.664-2.027-14.693-.026-.127-1.729.886-1.948 1.04a42.6 42.6 0 0 0-5.722 4.911 51.3 51.3 0 0 0-5.465 6.569 49.6 49.6 0 0 0-7.856 17.776c-.046.112-2.128 9.225-1.1 13.951"/><path fill="url(#k)" d="M216.394 172.275a31.9 31.9 0 0 1 5.436 7.108q.457.344.877.732c13.27 12.245 6.328 29.579 5.799 30.824 10.781-8.903 17.676-22.067 15.601-35.657-6.618-16.545-17.842-23.214-27.007-37.731a63 63 0 0 1-1.381-2.249 17 17 0 0 1-.643-1.22c-.38-.734-.673-1.51-.875-2.312a.15.15 0 0 0-.035-.104.15.15 0 0 0-.096-.054.2.2 0 0 0-.11 0l-.027.017c-.014 0-.029.017-.043.022-2.266 1.083-15.691 22.389 2.504 40.624"/><path fill="url(#l)" d="M222.702 180.103a11 11 0 0 0-.877-.732q-.18-.136-.365-.271c-3.125-2.197-8.722-4.374-14.113-3.435 21.055 10.551 15.401 46.883-13.774 45.512a26 26 0 0 1-7.616-1.465 32 32 0 0 1-1.72-.706c-.331-.151-.66-.302-.974-.471l.039.025c4.07 2.783 24.172 9.583 45.18-7.568 0 0 .012-.031.032-.075.521-1.223 7.463-18.557-5.812-30.814"/><path fill="url(#m)" d="M169.467 199.339s2.701-10.091 19.347-10.091c1.8 0 6.944-5.034 7.039-6.494s-10.644 4.482-21.978-.864c-12.237-5.77-21.522.864-21.522.864s3.527 8.744 13.867 8.744c-1.084 9.591 3.975 20.774 16.224 26.642.273.129.531.273.811.4-7.148-3.695-13.05-10.701-13.788-19.201"/><path fill="url(#n)" d="M249.911 172.219c-2.543-6.135-7.696-12.757-11.742-14.849 3.293 6.471 5.198 12.962 5.926 17.805 0 0 0 .034.012.097-6.618-16.535-17.842-23.204-27.007-37.721a63 63 0 0 1-1.381-2.249 17 17 0 0 1-.643-1.22c-.38-.734-.673-1.51-.875-2.312a.15.15 0 0 0-.035-.104.15.15 0 0 0-.096-.054.2.2 0 0 0-.11 0l-.027.017c-.014 0-.029.017-.043.022l.024-.032c-14.704 8.631-19.693 24.598-20.151 32.588.682-.046 1.362-.105 2.056-.105 10.973 0 20.531 6.049 25.648 15.01-3.125-2.197-8.722-4.374-14.112-3.434 21.054 10.55 15.401 46.883-13.774 45.511a26 26 0 0 1-7.617-1.465 33 33 0 0 1-1.72-.705c-.331-.152-.66-.303-.974-.472l.039.025a35 35 0 0 1-.85-.425c.273.13.531.274.811.4-7.163-3.703-13.065-10.708-13.803-19.208 0 0 2.701-10.092 19.347-10.092 1.8 0 6.944-5.033 7.039-6.493-.022-.476-10.208-4.538-14.181-8.461-2.121-2.094-3.13-3.105-4.023-3.864q-.727-.615-1.515-1.147a27.25 27.25 0 0 1-.164-14.339c-6.013 2.746-10.69 7.079-14.09 10.914h-.027c-2.321-2.946-2.158-12.664-2.027-14.693-.026-.126-1.729.887-1.948 1.04a42.6 42.6 0 0 0-5.722 4.912 51 51 0 0 0-5.465 6.569 49.6 49.6 0 0 0-7.856 17.775l-.077.389c-.11.515-.607 3.136-.675 3.698 0 .044 0-.042 0 0a68 68 0 0 0-.875 8.187v.3c0 32.398 26.209 58.664 58.536 58.664 28.953 0 52.991-21.066 57.699-48.738.098-.75.178-1.506.266-2.263 1.164-10.062-.129-20.637-3.798-29.478"/></g><defs><radialGradient id="d" cx="0" cy="0" r="1" gradientTransform="matrix(122.032 0 0 122.3 237.672 145.045)" gradientUnits="userSpaceOnUse"><stop offset=".13" stop-color="#ffbd4f"/><stop offset=".19" stop-color="#ffac31"/><stop offset=".25" stop-color="#ff9d17"/><stop offset=".28" stop-color="#ff980e"/><stop offset=".4" stop-color="#ff563b"/><stop offset=".47" stop-color="#ff3750"/><stop offset=".71" stop-color="#f5156c"/><stop offset=".78" stop-color="#eb0878"/><stop offset=".86" stop-color="#e50080"/></radialGradient><radialGradient id="e" cx="0" cy="0" r="1" gradientTransform="matrix(122.032 0 0 122.3 193.081 195.043)" gradientUnits="userSpaceOnUse"><stop offset=".3" stop-color="#960e18"/><stop offset=".35" stop-color="#b11927" stop-opacity=".74"/><stop offset=".43" stop-color="#db293d" stop-opacity=".34"/><stop offset=".5" stop-color="#f5334b" stop-opacity=".09"/><stop offset=".53" stop-color="#ff3750" stop-opacity="0"/></radialGradient><radialGradient id="f" cx="0" cy="0" r="1" gradientTransform="matrix(88.4067 0 0 88.6007 207.796 117.29)" gradientUnits="userSpaceOnUse"><stop offset=".13" stop-color="#fff44f"/><stop offset=".25" stop-color="#ffdc3e"/><stop offset=".51" stop-color="#ff9d12"/><stop offset=".53" stop-color="#ff980e"/></radialGradient><radialGradient id="g" cx="0" cy="0" r="1" gradientTransform="matrix(58.104 0 0 58.2315 179.585 226.989)" gradientUnits="userSpaceOnUse"><stop offset=".35" stop-color="#3a8ee6"/><stop offset=".47" stop-color="#5c79f0"/><stop offset=".67" stop-color="#9059ff"/><stop offset="1" stop-color="#c139e6"/></radialGradient><radialGradient id="h" cx="0" cy="0" r="1" gradientTransform="matrix(29.8827 -7.40989 8.62594 35.197 194.834 180.508)" gradientUnits="userSpaceOnUse"><stop offset=".21" stop-color="#9059ff" stop-opacity="0"/><stop offset=".28" stop-color="#8c4ff3" stop-opacity=".06"/><stop offset=".75" stop-color="#7716a8" stop-opacity=".45"/><stop offset=".97" stop-color="#6e008b" stop-opacity=".6"/></radialGradient><radialGradient id="i" cx="0" cy="0" r="1" gradientTransform="matrix(41.8017 0 0 41.8935 191.539 140.041)" gradientUnits="userSpaceOnUse"><stop stop-color="#ffe226"/><stop offset=".12" stop-color="#ffdb27"/><stop offset=".3" stop-color="#ffc82a"/><stop offset=".5" stop-color="#ffa930"/><stop offset=".73" stop-color="#ff7e37"/><stop offset=".79" stop-color="#ff7139"/></radialGradient><radialGradient id="j" cx="0" cy="0" r="1" gradientTransform="matrix(178.345 0 0 178.737 224.399 113.47)" gradientUnits="userSpaceOnUse"><stop offset=".11" stop-color="#fff44f"/><stop offset=".46" stop-color="#ff980e"/><stop offset=".62" stop-color="#ff5634"/><stop offset=".72" stop-color="#ff3647"/><stop offset=".9" stop-color="#e31587"/></radialGradient><radialGradient id="k" cx="0" cy="0" r="1" gradientTransform="matrix(13.0644 129.622 -84.9189 9.16518 207.158 132.998)" gradientUnits="userSpaceOnUse"><stop stop-color="#fff44f"/><stop offset=".06" stop-color="#ffe847"/><stop offset=".17" stop-color="#ffc830"/><stop offset=".3" stop-color="#ff980e"/><stop offset=".36" stop-color="#ff8b16"/><stop offset=".45" stop-color="#ff672a"/><stop offset=".57" stop-color="#ff3647"/><stop offset=".74" stop-color="#e31587"/></radialGradient><radialGradient id="l" cx="0" cy="0" r="1" gradientTransform="matrix(111.341 0 0 111.586 190.556 155.556)" gradientUnits="userSpaceOnUse"><stop offset=".14" stop-color="#fff44f"/><stop offset=".48" stop-color="#ff980e"/><stop offset=".59" stop-color="#ff5634"/><stop offset=".66" stop-color="#ff3647"/><stop offset=".9" stop-color="#e31587"/></radialGradient><radialGradient id="m" cx="0" cy="0" r="1" gradientTransform="matrix(121.864 0 0 122.131 219.947 162.088)" gradientUnits="userSpaceOnUse"><stop offset=".09" stop-color="#fff44f"/><stop offset=".23" stop-color="#ffe141"/><stop offset=".51" stop-color="#ffaf1e"/><stop offset=".63" stop-color="#ff980e"/></radialGradient><linearGradient id="a" x1="153.506" x2="153.545" y1="240.204" y2="-17.5" gradientUnits="userSpaceOnUse"><stop stop-color="#fff"/><stop offset="1" stop-color="#d7bfff"/></linearGradient><linearGradient id="c" x1="242.163" x2="144.783" y1="150.364" y2="244.112" gradientUnits="userSpaceOnUse"><stop offset=".05" stop-color="#fff44f"/><stop offset=".11" stop-color="#ffe847"/><stop offset=".22" stop-color="#ffc830"/><stop offset=".37" stop-color="#ff980e"/><stop offset=".4" stop-color="#ff8b16"/><stop offset=".46" stop-color="#ff672a"/><stop offset=".53" stop-color="#ff3647"/><stop offset=".7" stop-color="#e31587"/></linearGradient><linearGradient id="n" x1="240.994" x2="158.13" y1="149.861" y2="232.546" gradientUnits="userSpaceOnUse"><stop offset=".17" stop-color="#fff44f" stop-opacity=".8"/><stop offset=".27" stop-color="#fff44f" stop-opacity=".63"/><stop offset=".49" stop-color="#fff44f" stop-opacity=".22"/><stop offset=".6" stop-color="#fff44f" stop-opacity="0"/></linearGradient></defs></svg>