<svg xmlns="http://www.w3.org/2000/svg" width="257" height="256" fill="none" viewBox="0 0 257 256"><g clip-path="url(#a)"><rect width="240" height="240" fill="#7338e2" rx="120"/><path fill="#000" d="M211.679 135.057c-9.005 0-13.597-6.527-15.315-15.394-2.488-12.849-6.812-24.994-11.937-37.11-2.636-6.235-7.464-20.546-15.432-22.185-9.065-1.873-17.062 3.014-27.4 23.735-8.501 17.092-14.248 29.004-14.248 29.004v.117l-5.835-.059h-2.933s-.148 0-.148.03l-5.835.058v-.117s-5.747-11.941-14.248-29.003c-10.308-20.75-18.335-25.609-27.4-23.736-7.967 1.64-12.796 15.98-15.432 22.185-5.124 12.116-9.45 24.232-11.937 37.11-1.718 8.868-6.28 15.365-15.314 15.394-2.31 0-3.851 2.4-3.051 4.537 1.925 5.151 7.85 8.428 12.796 10.331-2.222.585-8.857-.761-9.153 2.575-.237 2.722 6.694 5.473 8.56 6.351 17.447 8.4 33.502 23.472 54.148 20.809 8.975-1.171 15.521-7.492 22.867-11.414a11.9 11.9 0 0 1 11.138 0c7.346 3.922 13.892 10.243 22.867 11.414 20.646 2.663 36.701-12.409 54.148-20.809 1.866-.907 8.768-3.629 8.56-6.351-.266-3.307-6.901-1.99-9.153-2.575 4.947-1.903 10.871-5.18 12.797-10.331.8-2.137-.77-4.508-3.051-4.537zm-146.24 4.419c-.266-2.78 5.776-4.917 7.968-5.268 13.034-2.166 30.303 2.927 34.509 16.419-11.967 10.916-36.612 3.395-42.477-11.122zm66.559 11.151c4.206-13.492 21.475-18.585 34.508-16.419 2.192.351 8.235 2.488 7.968 5.268-5.894 14.517-30.509 22.067-42.476 11.122z"/><path fill="url(#b)" d="M211.679 135.057c-9.005 0-13.597-6.527-15.315-15.394-2.488-12.849-6.812-24.994-11.937-37.11-2.636-6.235-7.464-20.546-15.432-22.185-9.065-1.873-17.062 3.014-27.4 23.735-8.501 17.092-14.248 29.004-14.248 29.004v.117l-5.835-.059h-2.933s-.148 0-.148.03l-5.835.058v-.117s-5.747-11.941-14.248-29.003c-10.308-20.75-18.335-25.609-27.4-23.736-7.967 1.64-12.796 15.98-15.432 22.185-5.124 12.116-9.45 24.232-11.937 37.11-1.718 8.868-6.28 15.365-15.314 15.394-2.31 0-3.851 2.4-3.051 4.537 1.925 5.151 7.85 8.428 12.796 10.331-2.222.585-8.857-.761-9.153 2.575-.237 2.722 6.694 5.473 8.56 6.351 17.447 8.4 33.502 23.472 54.148 20.809 8.975-1.171 15.521-7.492 22.867-11.414a11.9 11.9 0 0 1 11.138 0c7.346 3.922 13.892 10.243 22.867 11.414 20.646 2.663 36.701-12.409 54.148-20.809 1.866-.907 8.768-3.629 8.56-6.351-.266-3.307-6.901-1.99-9.153-2.575 4.947-1.903 10.871-5.18 12.797-10.331.8-2.137-.77-4.508-3.051-4.537zm-146.24 4.419c-.266-2.78 5.776-4.917 7.968-5.268 13.034-2.166 30.303 2.927 34.509 16.419-11.967 10.916-36.612 3.395-42.477-11.122zm66.559 11.151c4.206-13.492 21.475-18.585 34.508-16.419 2.192.351 8.235 2.488 7.968 5.268-5.894 14.517-30.509 22.067-42.476 11.122z"/><path fill="url(#c)" d="M248.873 171.613c-2.55-6.134-7.715-12.756-11.771-14.849 3.301 6.471 5.211 12.962 5.941 17.807 0 .009.004.033.012.098-6.635-16.537-17.884-23.205-27.071-37.723-.463-.734-.929-1.47-1.382-2.246q-.345-.596-.646-1.214a10.7 10.7 0 0 1-.877-2.321.15.15 0 0 0-.133-.157.2.2 0 0 0-.11 0c-.009.003-.021.012-.03.016-.013.005-.029.016-.043.024l.025-.033c-14.739 8.632-19.739 24.6-20.198 32.589a29.36 29.36 0 0 0-16.148 6.222 17 17 0 0 0-1.52-1.147 27.2 27.2 0 0 1-.165-14.339c-6.027 2.744-10.715 7.083-14.123 10.913h-.027c-2.326-2.946-2.162-12.664-2.03-14.693-.027-.126-1.735.886-1.958 1.039a42.6 42.6 0 0 0-5.734 4.912 51.4 51.4 0 0 0-5.479 6.57l-.003.01q0-.006.003-.01a49.5 49.5 0 0 0-7.873 17.775c-.028.127-.052.259-.079.387-.11.517-.508 3.101-.578 3.662l-.012.128a56 56 0 0 0-.953 8.095c0 .1-.006.199-.006.3.001 32.4 26.271 58.665 58.674 58.665 29.02 0 53.115-21.066 57.833-48.737.099-.751.179-1.506.266-2.264 1.166-10.061-.129-20.636-3.805-29.479m-67.626 45.922c.274.131.532.274.814.4l.04.024a30 30 0 0 1-.854-.424m61.813-42.852-.008-.057.01.063z"/><path fill="url(#d)" d="M248.873 171.614c-2.55-6.134-7.715-12.756-11.77-14.849 3.301 6.471 5.211 12.962 5.941 17.806 0-.014.003.012.009.055l.01.064c5.535 15.007 2.52 30.268-1.826 39.593-6.724 14.429-23.002 29.217-48.481 28.495-27.528-.779-51.779-21.205-56.307-47.957-.824-4.219 0-6.361.416-9.786-.506 2.64-.699 3.403-.953 8.095 0 .1-.006.199-.006.299.001 32.4 26.27 58.665 58.674 58.665 29.019 0 53.115-21.067 57.832-48.738.099-.751.179-1.506.267-2.263 1.166-10.062-.13-20.636-3.806-29.479"/><path fill="url(#e)" d="M248.873 171.614c-2.55-6.134-7.715-12.756-11.77-14.849 3.301 6.471 5.211 12.962 5.941 17.806 0-.014.003.012.009.055l.01.064c5.535 15.007 2.52 30.268-1.826 39.593-6.724 14.429-23.002 29.217-48.481 28.495-27.528-.779-51.779-21.205-56.307-47.957-.824-4.219 0-6.361.416-9.786-.506 2.64-.699 3.403-.953 8.095 0 .1-.006.199-.006.299.001 32.4 26.27 58.665 58.674 58.665 29.019 0 53.115-21.067 57.832-48.738.099-.751.179-1.506.267-2.263 1.166-10.062-.13-20.636-3.806-29.479"/><path fill="url(#f)" d="M220.36 178.509c.128.09.244.179.365.269a32 32 0 0 0-5.447-7.108c-18.239-18.236-4.783-39.541-2.513-40.623l.024-.033c-14.739 8.632-19.739 24.6-20.198 32.589.683-.048 1.365-.105 2.061-.105 10.999 0 20.578 6.047 25.708 15.011"/><path fill="url(#g)" d="M194.688 182.151c-.095 1.459-5.252 6.492-7.055 6.492-16.685 0-19.393 10.092-19.393 10.092.739 8.498 6.656 15.497 13.821 19.2.327.169.658.321.989.472q.852.378 1.723.705a26 26 0 0 0 7.635 1.472c29.243 1.372 34.909-34.959 13.805-45.51 5.404-.939 11.014 1.234 14.147 3.435-5.13-8.964-14.709-15.011-25.708-15.011-.696 0-1.377.057-2.061.105a29.36 29.36 0 0 0-16.148 6.222c.895.757 1.904 1.769 4.032 3.865 3.98 3.922 14.192 7.984 14.213 8.461"/><path fill="url(#h)" d="M194.688 182.151c-.095 1.459-5.252 6.492-7.055 6.492-16.685 0-19.393 10.092-19.393 10.092.739 8.498 6.656 15.497 13.821 19.2.327.169.658.321.989.472q.852.378 1.723.705a26 26 0 0 0 7.635 1.472c29.243 1.372 34.909-34.959 13.805-45.51 5.404-.939 11.014 1.234 14.147 3.435-5.13-8.964-14.709-15.011-25.708-15.011-.696 0-1.377.057-2.061.105a29.36 29.36 0 0 0-16.148 6.222c.895.757 1.904 1.769 4.032 3.865 3.98 3.922 14.192 7.984 14.213 8.461"/><path fill="url(#i)" d="M173.707 167.874q.612.395 1.216.806a27.2 27.2 0 0 1-.165-14.339c-6.027 2.744-10.715 7.082-14.123 10.913.282-.008 8.792-.161 13.072 2.62"/><path fill="url(#j)" d="M136.449 194.821c4.527 26.752 28.778 47.178 56.306 47.957 25.479.722 41.757-14.067 48.481-28.495 4.346-9.326 7.362-24.585 1.826-39.593l-.002-.007-.008-.056c-.006-.044-.01-.07-.009-.056 0 .01.004.034.012.098 2.081 13.589-4.832 26.754-15.638 35.655l-.032.077c-21.056 17.144-41.205 10.343-45.284 7.56q-.43-.207-.855-.426c-12.276-5.866-17.347-17.05-16.26-26.641-10.365 0-13.9-8.743-13.9-8.743s9.307-6.635 21.572-.864c11.36 5.345 22.029.865 22.03.864-.022-.476-10.234-4.538-14.215-8.461-2.127-2.095-3.137-3.106-4.032-3.864q-.728-.615-1.519-1.147a69 69 0 0 0-1.216-.806c-4.28-2.781-12.79-2.628-13.072-2.621h-.028c-2.325-2.946-2.161-12.664-2.029-14.693-.028-.126-1.735.886-1.959 1.038a42.7 42.7 0 0 0-5.733 4.913 51 51 0 0 0-5.479 6.572l-.003.009.003-.009a49.5 49.5 0 0 0-7.873 17.774c-.028.127-2.112 9.239-1.084 13.965"/><path fill="url(#k)" d="M215.278 171.67a32 32 0 0 1 5.447 7.108c.323.242.625.484.881.72 13.301 12.256 6.332 29.59 5.812 30.826 10.806-8.902 17.718-22.067 15.637-35.656-6.634-16.536-17.884-23.204-27.07-37.722a74 74 0 0 1-1.382-2.246 18 18 0 0 1-.646-1.214 10.7 10.7 0 0 1-.877-2.321.16.16 0 0 0-.037-.105.15.15 0 0 0-.097-.052.2.2 0 0 0-.11 0c-.008.003-.02.012-.029.016-.013.005-.029.016-.043.024-2.268 1.081-15.724 22.386 2.514 40.622"/><path fill="url(#l)" d="M221.605 179.499a12 12 0 0 0-.881-.721c-.12-.09-.237-.179-.365-.268-3.132-2.201-8.742-4.375-14.147-3.435 21.104 10.551 15.438 46.882-13.805 45.51a26 26 0 0 1-7.634-1.472 34 34 0 0 1-1.724-.705 22 22 0 0 1-.988-.472c.011.008.027.017.039.024 4.08 2.783 24.229 9.584 45.285-7.56l.032-.076c.52-1.234 7.489-18.569-5.812-30.825"/><path fill="url(#m)" d="M168.24 198.735s2.708-10.092 19.393-10.092c1.803 0 6.96-5.033 7.055-6.492.096-1.46-10.669 4.48-22.029-.865-12.266-5.771-21.572.865-21.572.865s3.534 8.742 13.9 8.742c-1.087 9.591 3.984 20.777 16.26 26.642.274.131.532.274.814.4-7.165-3.703-13.082-10.702-13.821-19.2"/><path fill="url(#n)" d="M248.873 171.613c-2.55-6.134-7.715-12.756-11.771-14.849 3.301 6.471 5.211 12.962 5.941 17.807 0 .009.004.033.012.098-6.635-16.537-17.884-23.205-27.071-37.723-.463-.734-.929-1.47-1.382-2.246q-.345-.596-.646-1.214a10.7 10.7 0 0 1-.877-2.321.15.15 0 0 0-.133-.157.2.2 0 0 0-.11 0c-.009.003-.021.012-.03.016-.013.005-.029.016-.043.024l.025-.033c-14.739 8.632-19.739 24.6-20.198 32.589.683-.048 1.365-.105 2.061-.105 10.999 0 20.578 6.047 25.708 15.011-3.133-2.201-8.743-4.375-14.148-3.435 21.104 10.551 15.439 46.882-13.805 45.51a26 26 0 0 1-7.634-1.472 33 33 0 0 1-1.723-.705 22 22 0 0 1-.989-.472l.04.024q-.43-.207-.855-.425c.275.131.532.274.814.4-7.165-3.703-13.082-10.702-13.821-19.2 0 0 2.708-10.092 19.393-10.092 1.803 0 6.96-5.033 7.055-6.492-.021-.477-10.233-4.539-14.214-8.461-2.128-2.096-3.138-3.106-4.032-3.864a18 18 0 0 0-1.52-1.148 27.2 27.2 0 0 1-.164-14.339c-6.028 2.745-10.716 7.083-14.124 10.913h-.027c-2.326-2.946-2.162-12.664-2.029-14.693-.028-.126-1.735.886-1.959 1.039a43 43 0 0 0-5.734 4.912 51.4 51.4 0 0 0-5.477 6.571l-.003.01q0-.006.003-.01a49.5 49.5 0 0 0-7.873 17.775c-.028.127-.052.259-.079.387-.11.517-.607 3.138-.676 3.7.005-.043-.006.044 0 0a68 68 0 0 0-.866 8.186c0 .1-.006.2-.006.3 0 32.399 26.27 58.664 58.673 58.664 29.02 0 53.115-21.066 57.833-48.737.099-.751.179-1.506.266-2.264 1.166-10.061-.129-20.636-3.805-29.479m-5.821 3.013.01.063-.002-.006z"/></g><defs><radialGradient id="d" cx="0" cy="0" r="1" gradientTransform="matrix(122.32 0 0 122.3 236.299 144.44)" gradientUnits="userSpaceOnUse"><stop offset=".108" stop-color="#3fe1b0"/><stop offset=".122" stop-color="#3bdcb3"/><stop offset=".254" stop-color="#1bb3d3"/><stop offset=".358" stop-color="#0799e6"/><stop offset=".42" stop-color="#0090ed"/><stop offset=".487" stop-color="#2482f1"/><stop offset=".64" stop-color="#7165fb"/><stop offset=".71" stop-color="#9059ff"/><stop offset=".795" stop-color="#7d49ed"/><stop offset=".86" stop-color="#7542e5"/></radialGradient><radialGradient id="e" cx="0" cy="0" r="1" gradientTransform="matrix(122.32 0 0 122.3 191.602 194.44)" gradientUnits="userSpaceOnUse"><stop offset=".3" stop-color="#45278d"/><stop offset=".341" stop-color="#562896" stop-opacity=".787"/><stop offset=".43" stop-color="#782aa9" stop-opacity=".364"/><stop offset=".495" stop-color="#8d2bb5" stop-opacity=".1"/><stop offset=".53" stop-color="#952bb9" stop-opacity="0"/></radialGradient><radialGradient id="f" cx="0" cy="0" r="1" gradientTransform="matrix(88.6156 0 0 88.6013 206.349 116.685)" gradientUnits="userSpaceOnUse"><stop offset=".132" stop-color="#3fe1b0"/><stop offset=".289" stop-color="#28d0c8"/><stop offset=".526" stop-color="#00b3f4"/></radialGradient><radialGradient id="g" cx="0" cy="0" r="1" gradientTransform="matrix(58.2419 0 0 58.2325 178.072 226.386)" gradientUnits="userSpaceOnUse"><stop offset=".287" stop-color="#0060df"/><stop offset=".417" stop-color="#2357e1"/><stop offset=".604" stop-color="#4f4ce3"/><stop offset=".748" stop-color="#6b45e4"/><stop offset=".833" stop-color="#7542e5"/></radialGradient><radialGradient id="h" cx="0" cy="0" r="1" gradientTransform="matrix(30.0129 -7.26046 8.50539 35.152 193.296 179.182)" gradientUnits="userSpaceOnUse"><stop offset=".206" stop-color="#45278d" stop-opacity="0"/><stop offset=".251" stop-color="#44268a" stop-opacity=".055"/><stop offset=".725" stop-color="#371f6f" stop-opacity=".591"/><stop offset=".956" stop-color="#321c64" stop-opacity=".8"/></radialGradient><radialGradient id="i" cx="0" cy="0" r="1" gradientTransform="matrix(41.8991 0 0 41.8924 190.058 139.436)" gradientUnits="userSpaceOnUse"><stop stop-color="#0df"/><stop offset=".235" stop-color="#00d6fd"/><stop offset=".572" stop-color="#00c3f8"/><stop offset=".792" stop-color="#00b3f4"/></radialGradient><radialGradient id="j" cx="0" cy="0" r="1" gradientTransform="matrix(178.765 0 0 178.736 222.991 112.865)" gradientUnits="userSpaceOnUse"><stop offset=".126" stop-color="#3fe1b0"/><stop offset=".429" stop-color="#0df"/><stop offset=".479" stop-color="#1ec1ff"/><stop offset=".624" stop-color="#7077ff"/><stop offset=".69" stop-color="#9059ff"/><stop offset=".904" stop-color="#b833e1"/></radialGradient><radialGradient id="k" cx="0" cy="0" r="1" gradientTransform="matrix(13.7055 130.213 -85.4431 8.99623 205.597 132.295)" gradientUnits="userSpaceOnUse"><stop stop-color="#54ffbd"/><stop offset=".095" stop-color="#4cf3b8"/><stop offset=".197" stop-color="#3fe1b0"/><stop offset=".257" stop-color="#33d8bd"/><stop offset=".369" stop-color="#12c0e1"/><stop offset=".423" stop-color="#00b3f4"/><stop offset=".737" stop-color="#0060df"/></radialGradient><radialGradient id="l" cx="0" cy="0" r="1" gradientTransform="matrix(111.606 0 0 111.588 189.07 154.953)" gradientUnits="userSpaceOnUse"><stop offset=".137" stop-color="#3fe1b0"/><stop offset=".435" stop-color="#0df"/><stop offset=".484" stop-color="#1ec1ff"/><stop offset=".622" stop-color="#7077ff"/><stop offset=".685" stop-color="#9059ff"/></radialGradient><radialGradient id="m" cx="0" cy="0" r="1" gradientTransform="matrix(122.152 0 0 122.132 218.531 161.483)" gradientUnits="userSpaceOnUse"><stop offset=".094" stop-color="#54ffbd"/><stop offset=".242" stop-color="#41f7cc"/><stop offset=".543" stop-color="#0fe3f3"/><stop offset=".626" stop-color="#0df"/></radialGradient><linearGradient id="b" x1="153.506" x2="153.545" y1="240.204" y2="-17.5" gradientUnits="userSpaceOnUse"><stop stop-color="#fff"/><stop offset="1" stop-color="#d7bfff"/></linearGradient><linearGradient id="c" x1="247.186" x2="145.668" y1="162.091" y2="226.04" gradientUnits="userSpaceOnUse"><stop stop-color="#3fe1b0"/><stop offset=".406" stop-color="#00b3f4"/><stop offset=".421" stop-color="#03b0f4"/><stop offset=".818" stop-color="#5561e9"/><stop offset="1" stop-color="#7542e5"/></linearGradient><linearGradient id="n" x1="239.931" x2="157.06" y1="149.255" y2="232.125" gradientUnits="userSpaceOnUse"><stop offset=".167" stop-color="#54ffbd" stop-opacity=".8"/><stop offset=".236" stop-color="#43f8ca" stop-opacity=".639"/><stop offset=".361" stop-color="#27ede1" stop-opacity=".368"/><stop offset=".466" stop-color="#12e4f1" stop-opacity=".169"/><stop offset=".545" stop-color="#05dffb" stop-opacity=".046"/><stop offset=".589" stop-color="#0df" stop-opacity="0"/></linearGradient><clipPath id="a"><path fill="#fff" d="M0 0h257v256H0z"/></clipPath></defs></svg>