<svg xmlns="http://www.w3.org/2000/svg" width="257" height="256" fill="none" viewBox="0 0 257 256"><g clip-path="url(#a)"><rect width="240" height="240" fill="#7338e2" rx="120"/><path fill="#000" d="M211.679 135.057c-9.005 0-13.597-6.527-15.315-15.394-2.488-12.849-6.812-24.994-11.937-37.11-2.636-6.235-7.464-20.546-15.432-22.185-9.065-1.873-17.062 3.014-27.4 23.735-8.501 17.092-14.248 29.004-14.248 29.004v.117l-5.835-.059h-2.933s-.148 0-.148.03l-5.835.058v-.117s-5.747-11.941-14.248-29.003c-10.308-20.75-18.335-25.609-27.4-23.736-7.967 1.64-12.796 15.98-15.432 22.185-5.124 12.116-9.45 24.232-11.937 37.11-1.718 8.868-6.28 15.365-15.314 15.394-2.31 0-3.851 2.4-3.051 4.537 1.925 5.151 7.85 8.428 12.796 10.331-2.222.585-8.857-.761-9.153 2.575-.237 2.722 6.694 5.473 8.56 6.351 17.447 8.4 33.502 23.472 54.148 20.809 8.975-1.171 15.521-7.492 22.867-11.414a11.9 11.9 0 0 1 11.138 0c7.346 3.922 13.892 10.243 22.867 11.414 20.646 2.663 36.701-12.409 54.148-20.809 1.866-.907 8.768-3.629 8.56-6.351-.266-3.307-6.901-1.99-9.153-2.575 4.947-1.903 10.871-5.18 12.797-10.331.8-2.137-.77-4.508-3.051-4.537zm-146.24 4.419c-.266-2.78 5.776-4.917 7.968-5.268 13.034-2.166 30.303 2.927 34.509 16.419-11.967 10.916-36.612 3.395-42.477-11.122zm66.559 11.151c4.206-13.492 21.475-18.585 34.508-16.419 2.192.351 8.235 2.488 7.968 5.268-5.894 14.517-30.509 22.067-42.476 11.122z"/><path fill="url(#b)" d="M211.679 135.057c-9.005 0-13.597-6.527-15.315-15.394-2.488-12.849-6.812-24.994-11.937-37.11-2.636-6.235-7.464-20.546-15.432-22.185-9.065-1.873-17.062 3.014-27.4 23.735-8.501 17.092-14.248 29.004-14.248 29.004v.117l-5.835-.059h-2.933s-.148 0-.148.03l-5.835.058v-.117s-5.747-11.941-14.248-29.003c-10.308-20.75-18.335-25.609-27.4-23.736-7.967 1.64-12.796 15.98-15.432 22.185-5.124 12.116-9.45 24.232-11.937 37.11-1.718 8.868-6.28 15.365-15.314 15.394-2.31 0-3.851 2.4-3.051 4.537 1.925 5.151 7.85 8.428 12.796 10.331-2.222.585-8.857-.761-9.153 2.575-.237 2.722 6.694 5.473 8.56 6.351 17.447 8.4 33.502 23.472 54.148 20.809 8.975-1.171 15.521-7.492 22.867-11.414a11.9 11.9 0 0 1 11.138 0c7.346 3.922 13.892 10.243 22.867 11.414 20.646 2.663 36.701-12.409 54.148-20.809 1.866-.907 8.768-3.629 8.56-6.351-.266-3.307-6.901-1.99-9.153-2.575 4.947-1.903 10.871-5.18 12.797-10.331.8-2.137-.77-4.508-3.051-4.537zm-146.24 4.419c-.266-2.78 5.776-4.917 7.968-5.268 13.034-2.166 30.303 2.927 34.509 16.419-11.967 10.916-36.612 3.395-42.477-11.122zm66.559 11.151c4.206-13.492 21.475-18.585 34.508-16.419 2.192.351 8.235 2.488 7.968 5.268-5.894 14.517-30.509 22.067-42.476 11.122z"/><path fill="#09204d" d="m167.797 201.58 3.696 10.249 5.555 7.494 13.041 2.487 6.239.531 10.651-2.661 4.589-4.398z"/><path fill="#09204d" d="m222.988 186.463-1.306-4.332-3.734-7.045-4.27-4.501-4.534-3.237-3.936-1.545-4.724-1.68-7.777-.495-4.904.885-4.001 1.23-7.101 4.155-4.437 4.951-4.092 6.645-1.61 5.655-.3 8.581 1.534 5.85 3.385 6.661 2.387 3.217 3.301 3.026 4.122 2.789 5.084 2.211 8.507.998 4.442.124 6.575-1.852 5.876-3.225 3.781-3.225 2.931-3.498 4.145-8.113.915-5.55z"/><path fill="#0e56d7" d="m192.85 167.527-3.483 3.456 5.682 2.303 4.226-5.241z"/><path fill="#1053d1" d="m195.048 173.286 10.999-.334-6.773-4.907z"/><path fill="#0b4fbf" d="m205.23 168.008-5.956.037 6.773 4.907 6.264-.409z"/><path fill="#0b48b0" d="m212.311 172.542-3.561-4.909 4.928 2.952z"/><path fill="#0c45a7" d="m217.026 175.549-4.715-3.006 1.367-1.958z"/><path fill="#0f46af" d="m212.31 172.543-.789 3.363 4.313 1.724z"/><path fill="#0c47ad" d="m212.311 172.543 4.715 3.007-1.192 2.08z"/><path fill="#0e4fc3" d="m206.047 172.952 6.263-.409-.789 3.363z"/><path fill="#174dca" d="m206.047 172.952-4.948 4.479 6.369 3.119z"/><path fill="#1650d4" d="m195.048 173.286 10.999-.334-4.948 4.479z"/><path fill="#1246b2" d="m211.521 175.906 2.996 5.809 1.317-4.085z"/><path fill="#133ea1" d="m214.517 181.715 1.317-4.085 3.138 7.463z"/><path fill="#103d98" d="m215.834 177.63 4.782 3.502-1.644 3.961z"/><path fill="#0b3785" d="m217.025 175.549.923-.463 2.668 6.046z"/><path fill="#0b3685" d="m220.617 181.132 1.066.999-3.734-7.045z"/><path fill="#0c3b91" d="m220.616 181.133-3.591-5.583-1.191 2.081zm-6.938-10.547 3.347 4.964.923-.464z"/><path fill="#0b3279" d="m222.747 189.848-1.065-7.717 1.305 4.332-.257 3.385z"/><path fill="#0f388d" d="m220.617 181.133 2.131 8.715-1.065-7.716z"/><path fill="#0d3481" d="m218.973 185.094 3.775 4.754-2.131-8.715z"/><path fill="#0b2e71" d="m222.73 189.848.258-3.385.26 8.68-.5-5.295z"/><path fill="#0e2f77" d="m222.115 196.707 1.133-1.564-.5-5.295z"/><path fill="#0e2969" d="m222.332 200.694-.905.436 1.82-5.986z"/><path fill="#0c2a69" d="m221.427 201.13 1.82-5.986-1.132 1.564z"/><path fill="#123180" d="m222.115 196.707.633-6.859-1.939 2.288z"/><path fill="#112b70" d="m221.427 201.13.688-4.422-3.741 6.287z"/><path fill="#12378c" d="m218.973 185.094 3.775 4.755-1.939 2.288z"/><path fill="#122e7b" d="m222.115 196.708-1.307-4.571-1.972 5.631z"/><path fill="#11296c" d="m218.188 208.807 3.239-7.677-3.031 5.596z"/><path fill="#142a72" d="m218.397 206.726 3.03-5.596-3.053 1.865z"/><path fill="#112768" d="m221.427 201.13-3.239 7.678 4.144-8.115zm-6.171 11.174 2.932-3.496.209-2.081zm-3.78 3.226 3.78-3.226-3.995 1.838z"/><path fill="#1c226a" d="m189.41 217.776-3.82.935.116-2.666z"/><path fill="#182b7a" d="m168.172 181.495 1.053-.391-2.663 6.046z"/><path fill="#1f308d" d="m166.562 187.15 2.016-.375.647-5.671z"/><path fill="#1e2b7f" d="m166.683 194.41-.121-7.261 2.016-.375z"/><path fill="#1346b5" d="m211.521 175.906-4.053 4.644 7.049 1.165zm-35.375-4.762 5.175-3.54-4.618 2.294z"/><path fill="#1244ac" d="m176.701 169.898 7.1-4.155-2.482 1.86z"/><path fill="#0e4ab6" d="m181.32 167.604 6.484-3.09-4.002 1.23z"/><path fill="#0e4bba" d="m206.048 172.952 1.421 7.599 4.054-4.644zm-20.778-5.708 6.039-2.415-3.505-.315z"/><path fill="#0a4ebc" d="m192.707 163.628-4.904.885 3.505.315z"/><path fill="#0c54cc" d="m197.346 164.768-6.037.06 1.399-1.2"/><path fill="#0b4bb4" d="m208.75 167.633-3.52.375 7.081 4.535zm-11.404-2.865 7.861 1.035-4.723-1.68z"/><path fill="#0c3889" d="m208.75 167.633-3.542-1.83 3.937 1.545z"/><path fill="#202575" d="m167.797 201.582 2.324 1.912-3.437-9.082zm32.078 18.062 2.043-4.809-7.446 2zm2.043-4.809 6.226 1.727.378-4.813z"/><path fill="#1b2773" d="m211.26 214.142-2.739-2.395 6.619-4.399z"/><path fill="#15276d" d="m215.141 207.348-3.88 6.794 3.995-1.837 3.141-5.578z"/><path fill="#0c409d" d="m209.145 167.348-.395.285 4.928 2.952zm-3.915.659 3.52-.374-3.542-1.831z"/><path fill="#0b4cb7" d="m192.707 163.628 4.639 1.14 3.139-.645zm12.5 2.175-7.861-1.035 7.885 3.24z"/><path fill="#0b55ce" d="m197.346 164.768 1.929 3.276 5.955-.037z"/><path fill="#0a52c5" d="m197.345 164.768 1.929 3.276-6.424-.517z"/><path fill="#0951c4" d="m191.309 164.828 1.541 2.699 4.496-2.759z"/><path fill="#0b50c4" d="m185.269 167.243 6.039-2.415 1.542 2.699z"/><path fill="#0f4dbf" d="m181.32 167.604 3.949-.36 2.535-2.73zm3.949-.36 4.098 3.739 3.483-3.455z"/><path fill="#1546b6" d="m185.269 167.243-6.671 6.256 2.722-5.896z"/><path fill="#1549bd" d="m178.598 173.499 4.257.708 2.414-6.964z"/><path fill="#144bc3" d="m182.854 174.207 2.415-6.964 4.098 3.739z"/><path fill="#173794" d="m172.264 174.849.259 2.516 3.622-6.221z"/><path fill="#192f84" d="m169.226 181.104 3.038-6.255.26 2.516z"/><path fill="#1a389b" d="m172.523 177.365 3.622-6.221 2.452 2.355z"/><path fill="#1d3089" d="m172.304 182.759.22-5.394-3.298 3.739z"/><path fill="#1e389f" d="m172.305 182.759.219-5.394 4.28 3.475z"/><path fill="#1c40af" d="m176.803 180.84 1.794-7.341-6.074 3.866z"/><path fill="#1e41b7" d="m176.803 180.84 1.794-7.341 4.257.708z"/><path fill="#192c7d" d="m168.578 186.775.647-5.671 3.079 1.656z"/><path fill="#162467" d="m199.875 219.643 5.724-.889 2.544-2.194zm-33.613-23.913.421-1.32-.121-7.261zm2.316-8.956-1.895 7.636 3.437 9.082-1.677-10.523z"/><path fill="#1a236a" d="m170.12 203.494 2.836.397-1.986-4.635z"/><path fill="#132668" d="m211.261 214.142-3.118 2.418-2.544 2.194 5.877-3.225zm-16.678 6.34 4.442.124 6.574-1.852-5.724.889zm-21.816-11.718 2.98.573-2.791-5.444z"/><path fill="#1b2268" d="m185.706 216.045-5.046-3.884-2.097 2.017 7.026 4.533zm-17.91-14.463 3.385 6.66-1.061-4.748zm-1.534-5.851 1.534 5.851-1.113-7.171zm28.209 21.103-8.764-.788 3.703 1.731-3.821.934-4.599-1.437 5.084 2.211 8.507.998 5.293-.839zm-21.515-12.942-2.836-.398 2.646 5.27zm-4.513-10.921 1.677 10.522.85-4.238zm7.303 16.366-2.98-.574-1.585-.521 2.387 3.217 3.301 3.026 4.122 2.789-2.428-3.096z"/><path fill="#212a81" d="m168.578 186.775 4.002 6.19-.276-10.205z"/><path fill="#21267a" d="m168.443 192.97 2.528 6.285 1.609-6.291z"/><path fill="#262781" d="m170.971 199.255 1.609-6.291 2.001 4.971z"/><path fill="#272379" d="m172.956 203.891 7.672 4.754-6.047-10.709z"/><path fill="#1e226d" d="m171.181 208.241 1.586.522-2.646-5.27zm16.947 2.735-2.421 5.068 8.764.788zm-15.171-7.086 2.79 5.444 2.816 4.841 2.098-2.016-.033-3.516z"/><path fill="#222475" d="m208.521 211.747-.378 4.813 3.117-2.418zm-13.412-.691-.637 5.777 7.446-2-.265-6.494z"/><path fill="#23277d" d="m168.443 192.97 4.137-.006-4.001-6.19zm33.211 15.368.265 6.494 6.602-3.086z"/><path fill="#1e2776" d="m201.653 208.338 4.25-3.848 2.618 7.257z"/><path fill="#222b86" d="m208.521 211.747 3.212-9.727-5.831 2.471z"/><path fill="#192974" d="m215.14 207.348-6.619 4.399 3.211-9.727z"/><path fill="#172a75" d="m218.374 202.996-6.642-.976 3.408 5.328 3.256-.621z"/><path fill="#172d7d" d="m218.835 197.767-7.103 4.252 6.642.976 3.741-6.287z"/><path fill="#18338a" d="m169.225 181.104 3.039-6.255-4.092 6.645zm46.961 7.742 2.649 8.921 1.973-5.631z"/><path fill="#153791" d="m220.808 192.137-1.836-7.043-2.785 3.753z"/><path fill="#1b318b" d="m211.732 202.02 7.103-4.252-6.884-3.065z"/><path fill="#242d8d" d="m211.732 202.019-6.437-6.504.607 8.975z"/><path fill="#2a2b8f" d="m201.653 208.339-4.942-4.376 9.191.528z"/><path fill="#27267f" d="m172.956 203.891 1.625-5.955-3.61 1.319zm23.755.071-1.602 7.094 6.545-2.718z"/><path fill="#2d2381" d="m186.48 205.413-4.758-2.418-1.094 5.65 7.499 2.332 6.982.079z"/><path fill="#2f2485" d="m195.109 211.056 1.602-7.093-10.231 1.451z"/><path fill="#233196" d="m172.581 192.965 2.052-6.551-2.328-3.654z"/><path fill="#293cb7" d="m176.803 180.839 9.007-2.625-4.758 9.719z"/><path fill="#25339c" d="m211.732 202.02-6.437-6.505 6.656-.812z"/><path fill="#19348f" d="m218.835 197.767-2.649-8.92-4.235 5.856z"/><path fill="#2a309a" d="m205.903 204.49-7.362-7.117 6.755-1.858z"/><path fill="#302b96" d="m196.711 203.963 9.191.528-7.361-7.118z"/><path fill="#3630a7" d="m196.71 203.963-5.034-4.1 6.864-2.49z"/><path fill="#173da2" d="m176.145 171.144.556-1.246-4.437 4.951zm38.371 10.571 1.67 7.132 2.786-3.754z"/><path fill="#2a36a8" d="m176.804 180.84 4.249 7.093-6.42-1.52z"/><path fill="#312e9f" d="m174.633 186.413 6.42 1.52-4.342 6.839z"/><path fill="#184dcd" d="m185.811 178.214 3.556-7.232-6.513 3.225z"/><path fill="#272986" d="m172.58 192.964 4.131 1.807-2.13 3.164z"/><path fill="#2c2584" d="m176.71 194.771-2.13 3.164 6.047 10.71 1.095-5.65z"/><path fill="#32268b" d="m181.722 202.995.67-9.949-5.681 1.726z"/><path fill="#372999" d="m181.723 202.995 9.954-3.132-9.284-6.817z"/><path fill="#392da5" d="m191.677 199.863-.97-7.692-8.314.875z"/><path fill="#3338bc" d="m190.706 192.17 7.021-2.625.814 7.828z"/><path fill="#362896" d="m186.48 205.414 10.231-1.451-5.034-4.1z"/><path fill="#35268f" d="m186.48 205.414-4.757-2.419 9.954-3.132z"/><path fill="#2648d3" d="m185.811 178.214 6.096.645-2.54-7.877z"/><path fill="#1057dc" d="m195.048 173.285-5.681-2.303 2.54 7.877z"/><path fill="#1653da" d="m195.048 173.285 6.051 4.146-9.192 1.428z"/><path fill="#2b46d5" d="m191.907 178.859 9.016 4.781-3.196 5.905z"/><path fill="#244ad7" d="m200.923 183.641.176-6.209-9.192 1.428z"/><path fill="#2547cf" d="m200.924 183.641.175-6.209 6.369 3.119z"/><path fill="#333cc5" d="m191.907 178.859 5.82 10.686-10.207-5.112z"/><path fill="#3833b6" d="m190.707 192.171 7.02-2.626-10.207-5.112z"/><path fill="#2a41c6" d="m197.727 189.546 9.002-1.645-5.806-4.26z"/><path fill="#2045c1" d="m207.468 180.55-.738 7.351-5.806-4.261z"/><path fill="#1b43b7" d="m207.468 180.55 4.25 5.771-4.988 1.58z"/><path fill="#1742af" d="m214.517 181.715-7.049-1.165 4.249 5.771z"/><path fill="#1740a9" d="m178.598 173.499 2.722-5.895-5.175 3.54zm35.919 8.216-2.799 4.608 4.469 2.525z"/><path fill="#1b3ca4" d="m211.951 194.703 4.235-5.856-4.469-2.526z"/><path fill="#1f3dad" d="m211.952 194.703-.234-8.382-4.988 1.58z"/><path fill="#2543c3" d="m176.804 180.84 9.007-2.626-2.956-4.007zm20.923 8.705 7.568 5.97 1.434-7.614z"/><path fill="#2e37b2" d="m198.54 197.373 6.755-1.858-7.568-5.97z"/><path fill="#2d40c7" d="m185.811 178.214 1.709 6.218 4.387-5.573z"/><path fill="#3537b8" d="m185.81 178.214-4.757 9.719 6.466-3.501z"/><path fill="#3931b0" d="m187.52 184.433-5.127 8.613 8.314-.875z"/><path fill="#3735b8" d="m190.706 192.171.97 7.692 6.865-2.49zm-8.314.875 5.127-8.613-6.466 3.501z"/><path fill="#342892" d="m176.711 194.772 4.342-6.838 1.339 5.112z"/><path fill="#232372" d="m180.991 217.273 4.598 1.437-7.027-4.533zm-.331-5.112 5.046 3.883 2.421-5.068-7.5-2.331zm13.811 4.672.637-5.777-6.981-.08zm7.446-2-2.043 4.809 8.268-3.083z"/><path fill="#2a2f96" d="m172.58 192.964 2.052-6.551 2.079 8.359z"/><path fill="#2636a5" d="m174.633 186.413 2.171-5.573-4.499 1.92zm32.097 1.488-1.434 7.614 6.656-.812z"/><path fill="url(#c)" d="M223.375 195.151v-.013l-.26-8.679v-.009l-.001-.009-.003-.012v-.003l-1.305-4.33v-.003l-.002-.007q-.001-.005-.004-.009l-.002-.004-3.734-7.045-.002-.003-.004-.008-.005-.006-.002-.003-.004-.005-.003-.003-4.273-4.503-.002-.002-.003-.003-.008-.006-.006-.005-4.532-3.236h-.002l-.004-.003-.01-.005-.01-.004h-.002l-3.933-1.544h-.007l-4.722-1.68h-.004l-.009-.002-.009-.002h-.013l-7.777-.495h-.031l-4.904.885h-.011l-.008.002-3.997 1.229-.009.004-.01.004-.006.003h-.001l-7.1 4.155h-.002l-.006.004-.005.004-.005.004-.004.003-.005.006-.004.003-.002.002-4.436 4.948-.001.003-.004.003-.002.005-.004.005-.002.003-.002.002-4.094 6.64-.002.004-.004.007-.004.008-.003.009-.002.004-1.609 5.656v.018l-.002.01v.002l-.3 8.581v.021l.002.011v.008l1.533 5.847v.002l.002.005.004.012.003.006 3.384 6.659.002.003.007.011.001.003 2.386 3.215.003.004.007.007.006.006 3.3 3.027.009.007.006.005 4.123 2.789.002.001.01.006.006.002h.001l5.084 2.211.005.002.011.004.006.001.009.002h.005l8.508.999h.011l4.442.124h.005l.024-.003.006-.002h.003l6.575-1.851.004-.002.005-.001.005-.003.004-.002.008-.003.002-.001 5.874-3.223h.001l.003-.002.009-.006.008-.006 3.781-3.225.004-.004.005-.004.004-.006h.002l2.931-3.497.001-.001.011-.016.003-.005v-.001l4.154-8.111.002-.006.004-.009v-.005l.003-.011.002-.006.915-5.549v-.01zm-46.427 19.233-.854-.784 1.923 1.506zm12.478 3.259-3.005-1.405 7.112.639zm1.096-25.582-7.889.83 4.865-8.173zm-2.754-7.36 9.638 4.827-6.629 2.479zm2.825 7.61.917 7.272-8.776-6.446zm.802 7.506-9.532 2.999.641-9.528zm-.527-7.384 7.389 4.907-6.475 2.348zm.117-.23 6.63-2.479.769 7.391zm10.187-8.539 6.145-2.901-.693 6.902zm5.242 4.164-8.448 1.543 3-5.539zm-8.688 1.448-5.502-10.103 8.526 4.52zm-.308-.029-9.701-4.858 4.17-5.298zm-14.979 3.469-1.236-4.718 5.968-3.231zm-.818 9.866-4.715-7.736 5.345-1.624zm9.627-2.451-4.796 5.124-4.392-2.232zm7.102-2.553-1.711 6.16-4.707-3.833zm-.464-7.744 7.13 5.624-6.364 1.75zm.143-.214 8.54-1.56-1.361 7.222zm8.848-1.901.684-6.824 3.945 5.358zm4.716-1.225.218 7.816-4.868-6.342zm-10.536-3.059.164-5.801 5.949 2.914zm-.257-.006-8.492-4.503 8.658-1.345zm-13.225.724-1.591-5.792 5.678.601zm-.207.215-6.024 3.261 4.432-9.054zm-5.132 8.591-5.232 1.589 3.999-6.297zm-.947 9.571-6.532-4.627 1.948-2.894zm.527.656 4.39 2.231-5.4 2.983zm9.872-3.149 4.714 3.839-9.58 1.358zm6.918-2.423 6.958 6.727-8.687-.499zm.185-.179 6.386-1.756.574 8.486zm8.012-9.229 4.909 6.396-6.258.764zm5.049-1.663 4.146 2.344-3.929 5.433zm.043-.27 2.568-4.224 1.531 6.541zm-.188-.184-3.949-5.362 6.55 1.082zm-10.382-8.691 4.639-4.198 1.331 7.121zm-9.177 1.294 2.943-5.221 5.668 3.883zm-6.142-.586 3.336-6.782 2.382 7.387zm-4.965 9.559-4.043-6.748 8.57-2.498zm-4.278 6.785-1.955-7.864 6.039 1.43zm-2.154 3.213-1.793-4.456 3.702 1.62zm6.971 5.389-1.012 5.224-5.594-9.905zm4.822 2.551 1.534 5.18-6.983-2.171zm10.142-1.488-1.521 6.732-8.188-5.355zm9.045.486-3.937 3.564-4.579-4.054zm-.142-8.75 6.061 6.124-5.49 2.327zm.123-.24 6.248-.763-.205 6.868zm10.567-6.478 2.496 8.404-6.486-2.887zm-1.414-7.101 4.07 3.087-2.545 3.429zm-7.007-1.571 3.778-4.328 2.791 5.414zm-.171-.195-1.322-7.073 5.096 2.75zm-6.458-2.998-5.643-3.866 10.258-.311zm-9.148 1.272-2.366-7.335 5.291 2.145zm-6.152-.572-2.74-3.714 6.036-2.988zm-.191.175-8.391 2.446 5.638-6.181zm-4.811 9.594-5.982-1.416 2.023-5.191zm-4.263 6.812-3.786-1.657 1.879-6.004zm-2.111 3.311-3.257 1.191 1.452-5.676zm5.857 10.411-7.164-4.44 1.517-5.561zm7.295 2.664-6.777 1.074-.029-3.191zm-.862-5.225 7.969 5.213-6.445-.074zm10.086-1.509 4.626 4.096-6.125 2.545zm9.057.512 2.445 6.776-6.411-3.182zm.218-.153 5.458-2.313-3.007 9.106zm6.01-9.663 6.484 2.886-6.69 4.004zm4.342-5.731 4.239 3.018-1.809 5.165zm-.049-.349 2.548-3.433 1.679 6.442zm-1.7-7.15 1.183-3.669 2.818 6.703zm-.178-.287-2.696-5.228 3.882 1.552zm-7.987-8.329 5.645-.369-.71 3.032zm-11.177.097 3.974-4.929 6.37 4.615zm-.235-.118-2.046-5.359 5.981.481zm-.265.025-5.228-2.12 3.204-3.179zm-11.745.897 2.248-6.484 3.815 3.482zm-6.03 6.428 1.646-6.737 3.906.65zm-2.443 5.749-2.111-3.312 4.079-1.741zm-.113.301-1.804 5.759-.243-8.971zm-2.077 6.661-1.472 5.751-2.31-5.745zm-3.841-.25.122-5.646 3.647 5.639zm5.817 5.299-1.463 5.36-1.787-4.172zm5.868 10.427-4.44.628-2.538-4.953zm.241.224.029 3.146-4.394-2.527zm7.406 2.349-2.248 4.705-4.684-3.604zm.262.048 5.939 5.483-8.206-.738zm.291-.081 6.506.074-.594 5.384zm13.072-2.58.248 6.083-6.376-3.538zm.258.023 6.435 3.193-6.187 2.892zm9.98-6.234 3.194 4.995-6.205 4.123zm.222-.129 6.15.903-2.993 4.033zm.114-.242 6.579-3.938-.428 4.841zm8.689-9.385 1.162 4.064-2.915.942zm-1.545-6.91 3.331 4.195-1.711 2.019zm-3.118-7.642 4.327 3.169-1.487 3.583zm-4.46-2.179.697-2.975 3.117 4.499zm-5.518-3.012-.751-4.545 6.508 4.169zm-.286-.152-6.201-4.495 5.455-.033zm-12.618-5.233 4.05-2.486 1.737 2.952zm-3.888 3.374-3.748-3.422 6.936.261zm-6.595 3.257-3.891-.648 6.102-5.722zm-6.04 6.549-3.984-3.234 5.654-3.599zm-.169.193-4.117 1.757.201-4.935zm-4.118 11.705-3.699-5.721 3.443-3.711zm-1.603 6.758-.702 3.5-1.385-8.692zm.179.418 1.733 4.046-2.475-.347zm4.497 9.475-2.613-.503.167-4.273zm4.936 3.026-1.856 1.784-2.493-4.285zm.221.143 4.457 3.431-6.31-1.65zm14.546-1.068 6.365 3.529-6.958 1.87zm13.159.694-.349 4.439-5.737-1.593zm6.385-4.201-3.533 6.187-2.495-2.18zm3.488-4.375.02 3.24-2.828.54zm.708-5.517 2.875-.928-3.28 5.511zm1.994-5.696 1.632-1.925-.532 5.771zm-1.831-7.094 1.465-3.529 1.899 7.765zm-3.116-7.479 1.029-1.797 3.103 4.823zm-.179-.204-3.044-4.395 4.074 2.598zm-10.217-9.293 3.083-.329 3.118 4.3zm-6.259-.181-1.698-2.884 6.941 2.851zm-6.452-.567-1.367-2.395 5.356-.053zm-.272.042-6.746-.253 5.374-2.149zm-13.634 5.563 2.416-5.23 3.503-.319zm-.434.327-2.208-2.121 4.661-3.188zm-.165.197-5.49 3.495 3.274-5.624zm-6.206 9.071-2.756-1.481 2.952-3.346zm-.087.244-3.347 3.607.581-5.093zm-3.782 10.115-1.414 1.158 1.523-6.139zm.036.303 1.444 9.06-2.96-7.819zm4.472 10.791-.166 4.257-2.313-4.605zm2.841 5.449 2.349 4.037-4.834-4.516zm9.909 6.692-.103 2.338-6.164-3.977zm.253.099 3.198 1.496-3.3.807zm8.52.745.1 3.28-4.65-2.433zm7.349-1.962-1.886 4.441-4.988-2.594zm.295-.038 5.736 1.591-7.618 2.841zm6.636-2.975 2.431 2.124-2.764 2.144zm6.595-4.549 2.803-.535-6.14 6.38zm3.299-1.238-.02-3.158 2.585-1.58zm.227-3.61 3.137-5.271-.575 3.707zm4-11.384.366 3.876-.829 1.145zm-1.904-9.709.717.672.717 5.191zm-3.634-5.922.675-.338 1.95 4.419zm-4.716-3.093 1.184-1.695 2.897 4.297zm-.184-.186-3.088-4.255 4.273 2.558zm-6.952-4.456-.019-1.85 2.973 1.536zm-.258-.05-6.795-2.792 6.776.892zm-13.441-3.119 1.082-.928 3.587.882zm-5.908 2.216 2.104-2.266 2.908.262zm-.543.208-3.186.29 5.23-2.493zm-8.76 3.66.352-.788 2.924-1.453zm-3.837 6.179-.213-2.061 3.182-3.036zm-.221.363-2.637 2.99 2.43-5.002zm-3.928 9.344-1.685.313 2.224-5.048zm-.056.271-1.612 6.487-.102-6.168zm1.424 16.15-1.914-1.575-.917-5.904zm2.683 5.457-1.222-.402-.818-3.661zm5.225 5.037-4.061-2.21-.652-2.191zm.74.696 1.758 2.241-5.375-4.21zm.658.422 5.591 3.607-3.659-1.143zm10.257 3.213 4.346 2.273-7.553-1.489zm5.214-.864 4.864 2.529-4.764.756zm12.911-.118-1.975 1.703-4.443.69zm3.649-2.553.165 1.062-2.553.79zm6.623-6.836-2.625 4.663-3.341 1.536zm.732-.778 1.758-3.247-1.88 4.454zm3.716-10.006.664-.917-1.067 3.508zm.638-6.919v-.008l-.009-.068.066-.869.068 2.25zm-.176-1.28-.664-4.81.822 2.73zm-1.976-7.501-1.212-2.747 1.697 3.2zm-3.654-5.672-2.421-3.589 3.088 3.255zm-8.087-7.761.162-.117 1.861 1.328zm-.244-.14-1.258-.651 1.398.549zm-10.621-2.744 2.358-.484 3.548 1.262zm-.77-.104-3.21-.789 5.383.342zm-6.082.059-2.504-.225 3.504-.632zm-8.838 2.238 1.433-1.075 2.31-.71zm-1.176.561-1.243.618 1.911-1.118zm-5.214 3.574-1.474 1.408 1.686-1.88zm-6.905 9.934-.656.244 2.547-4.136zm-.855.59.708-.262-1.788 4.061zm-1.761 10.539.037 2.26-.13.411zm.122 2.838.645 4.155-.889-3.39zm3.365 8.595.828 3.709-2.642-5.204zm2.657 5.3.575 1.933-1.709-2.307zm12.844 9.955.24.382-2.512-1.092zm.645.545-.295-.47 5.467 1.077zm13.392.462-.574.651-3.001-.083zm.398-.063 3.577-.556-4.109 1.158zm8.266-3.088 2.097-.649-3.699 2.03zm3.36-1.392-.165-1.065 3.066-1.41zm6.641-7.959-.144 1.431-2.016 2.405zm3.32-6.1.518-.25-2.371 4.642zm.69-.617-.581.28 1.168-3.844z"/><path fill="url(#d)" d="M223.375 195.151v-.013l-.26-8.679v-.009l-.001-.009-.003-.012v-.003l-1.305-4.33v-.003l-.002-.007q-.001-.005-.004-.009l-.002-.004-3.734-7.045-.002-.003-.004-.008-.005-.006-.002-.003-.004-.005-.003-.003-4.273-4.503-.002-.002-.003-.003-.008-.006-.006-.005-4.532-3.236h-.002l-.004-.003-.01-.005-.01-.004h-.002l-3.933-1.544h-.007l-4.722-1.68h-.004l-.009-.002-.009-.002h-.013l-7.777-.495h-.031l-4.904.885h-.011l-.008.002-3.997 1.229-.009.004-.01.004-.006.003h-.001l-7.1 4.155h-.002l-.006.004-.005.004-.005.004-.004.003-.005.006-.004.003-.002.002-4.436 4.948-.001.003-.004.003-.002.005-.004.005-.002.003-.002.002-4.094 6.64-.002.004-.004.007-.004.008-.003.009-.002.004-1.609 5.656v.018l-.002.01v.002l-.3 8.581v.021l.002.011v.008l1.533 5.847v.002l.002.005.004.012.003.006 3.384 6.659.002.003.007.011.001.003 2.386 3.215.003.004.007.007.006.006 3.3 3.027.009.007.006.005 4.123 2.789.002.001.01.006.006.002h.001l5.084 2.211.005.002.011.004.006.001.009.002h.005l8.508.999h.011l4.442.124h.005l.024-.003.006-.002h.003l6.575-1.851.004-.002.005-.001.005-.003.004-.002.008-.003.002-.001 5.874-3.223h.001l.003-.002.009-.006.008-.006 3.781-3.225.004-.004.005-.004.004-.006h.002l2.931-3.497.001-.001.011-.016.003-.005v-.001l4.154-8.111.002-.006.004-.009v-.005l.003-.011.002-.006.915-5.549v-.01zm-46.427 19.233-.854-.784 1.923 1.506zm12.478 3.259-3.005-1.405 7.112.639zm1.096-25.582-7.889.83 4.865-8.173zm-2.754-7.36 9.638 4.827-6.629 2.479zm2.825 7.61.917 7.272-8.776-6.446zm.802 7.506-9.532 2.999.641-9.528zm-.527-7.384 7.389 4.907-6.475 2.348zm.117-.23 6.63-2.479.769 7.391zm10.187-8.539 6.145-2.901-.693 6.902zm5.242 4.164-8.448 1.543 3-5.539zm-8.688 1.448-5.502-10.103 8.526 4.52zm-.308-.029-9.701-4.858 4.17-5.298zm-14.979 3.469-1.236-4.718 5.968-3.231zm-.818 9.866-4.715-7.736 5.345-1.624zm9.627-2.451-4.796 5.124-4.392-2.232zm7.102-2.553-1.711 6.16-4.707-3.833zm-.464-7.744 7.13 5.624-6.364 1.75zm.143-.214 8.54-1.56-1.361 7.222zm8.848-1.901.684-6.824 3.945 5.358zm4.716-1.225.218 7.816-4.868-6.342zm-10.536-3.059.164-5.801 5.949 2.914zm-.257-.006-8.492-4.503 8.658-1.345zm-13.225.724-1.591-5.792 5.678.601zm-.207.215-6.024 3.261 4.432-9.054zm-5.132 8.591-5.232 1.589 3.999-6.297zm-.947 9.571-6.532-4.627 1.948-2.894zm.527.656 4.39 2.231-5.4 2.983zm9.872-3.149 4.714 3.839-9.58 1.358zm6.918-2.423 6.958 6.727-8.687-.499zm.185-.179 6.386-1.756.574 8.486zm8.012-9.229 4.909 6.396-6.258.764zm5.049-1.663 4.146 2.344-3.929 5.433zm.043-.27 2.568-4.224 1.531 6.541zm-.188-.184-3.949-5.362 6.55 1.082zm-10.382-8.691 4.639-4.198 1.331 7.121zm-9.177 1.294 2.943-5.221 5.668 3.883zm-6.142-.586 3.336-6.782 2.382 7.387zm-4.965 9.559-4.043-6.748 8.57-2.498zm-4.278 6.785-1.955-7.864 6.039 1.43zm-2.154 3.213-1.793-4.456 3.702 1.62zm6.971 5.389-1.012 5.224-5.594-9.905zm4.822 2.551 1.534 5.18-6.983-2.171zm10.142-1.488-1.521 6.732-8.188-5.355zm9.045.486-3.937 3.564-4.579-4.054zm-.142-8.75 6.061 6.124-5.49 2.327zm.123-.24 6.248-.763-.205 6.868zm10.567-6.478 2.496 8.404-6.486-2.887zm-1.414-7.101 4.07 3.087-2.545 3.429zm-7.007-1.571 3.778-4.328 2.791 5.414zm-.171-.195-1.322-7.073 5.096 2.75zm-6.458-2.998-5.643-3.866 10.258-.311zm-9.148 1.272-2.366-7.335 5.291 2.145zm-6.152-.572-2.74-3.714 6.036-2.988zm-.191.175-8.391 2.446 5.638-6.181zm-4.811 9.594-5.982-1.416 2.023-5.191zm-4.263 6.812-3.786-1.657 1.879-6.004zm-2.111 3.311-3.257 1.191 1.452-5.676zm5.857 10.411-7.164-4.44 1.517-5.561zm7.295 2.664-6.777 1.074-.029-3.191zm-.862-5.225 7.969 5.213-6.445-.074zm10.086-1.509 4.626 4.096-6.125 2.545zm9.057.512 2.445 6.776-6.411-3.182zm.218-.153 5.458-2.313-3.007 9.106zm6.01-9.663 6.484 2.886-6.69 4.004zm4.342-5.731 4.239 3.018-1.809 5.165zm-.049-.349 2.548-3.433 1.679 6.442zm-1.7-7.15 1.183-3.669 2.818 6.703zm-.178-.287-2.696-5.228 3.882 1.552zm-7.987-8.329 5.645-.369-.71 3.032zm-11.177.097 3.974-4.929 6.37 4.615zm-.235-.118-2.046-5.359 5.981.481zm-.265.025-5.228-2.12 3.204-3.179zm-11.745.897 2.248-6.484 3.815 3.482zm-6.03 6.428 1.646-6.737 3.906.65zm-2.443 5.749-2.111-3.312 4.079-1.741zm-.113.301-1.804 5.759-.243-8.971zm-2.077 6.661-1.472 5.751-2.31-5.745zm-3.841-.25.122-5.646 3.647 5.639zm5.817 5.299-1.463 5.36-1.787-4.172zm5.868 10.427-4.44.628-2.538-4.953zm.241.224.029 3.146-4.394-2.527zm7.406 2.349-2.248 4.705-4.684-3.604zm.262.048 5.939 5.483-8.206-.738zm.291-.081 6.506.074-.594 5.384zm13.072-2.58.248 6.083-6.376-3.538zm.258.023 6.435 3.193-6.187 2.892zm9.98-6.234 3.194 4.995-6.205 4.123zm.222-.129 6.15.903-2.993 4.033zm.114-.242 6.579-3.938-.428 4.841zm8.689-9.385 1.162 4.064-2.915.942zm-1.545-6.91 3.331 4.195-1.711 2.019zm-3.118-7.642 4.327 3.169-1.487 3.583zm-4.46-2.179.697-2.975 3.117 4.499zm-5.518-3.012-.751-4.545 6.508 4.169zm-.286-.152-6.201-4.495 5.455-.033zm-12.618-5.233 4.05-2.486 1.737 2.952zm-3.888 3.374-3.748-3.422 6.936.261zm-6.595 3.257-3.891-.648 6.102-5.722zm-6.04 6.549-3.984-3.234 5.654-3.599zm-.169.193-4.117 1.757.201-4.935zm-4.118 11.705-3.699-5.721 3.443-3.711zm-1.603 6.758-.702 3.5-1.385-8.692zm.179.418 1.733 4.046-2.475-.347zm4.497 9.475-2.613-.503.167-4.273zm4.936 3.026-1.856 1.784-2.493-4.285zm.221.143 4.457 3.431-6.31-1.65zm14.546-1.068 6.365 3.529-6.958 1.87zm13.159.694-.349 4.439-5.737-1.593zm6.385-4.201-3.533 6.187-2.495-2.18zm3.488-4.375.02 3.24-2.828.54zm.708-5.517 2.875-.928-3.28 5.511zm1.994-5.696 1.632-1.925-.532 5.771zm-1.831-7.094 1.465-3.529 1.899 7.765zm-3.116-7.479 1.029-1.797 3.103 4.823zm-.179-.204-3.044-4.395 4.074 2.598zm-10.217-9.293 3.083-.329 3.118 4.3zm-6.259-.181-1.698-2.884 6.941 2.851zm-6.452-.567-1.367-2.395 5.356-.053zm-.272.042-6.746-.253 5.374-2.149zm-13.634 5.563 2.416-5.23 3.503-.319zm-.434.327-2.208-2.121 4.661-3.188zm-.165.197-5.49 3.495 3.274-5.624zm-6.206 9.071-2.756-1.481 2.952-3.346zm-.087.244-3.347 3.607.581-5.093zm-3.782 10.115-1.414 1.158 1.523-6.139zm.036.303 1.444 9.06-2.96-7.819zm4.472 10.791-.166 4.257-2.313-4.605zm2.841 5.449 2.349 4.037-4.834-4.516zm9.909 6.692-.103 2.338-6.164-3.977zm.253.099 3.198 1.496-3.3.807zm8.52.745.1 3.28-4.65-2.433zm7.349-1.962-1.886 4.441-4.988-2.594zm.295-.038 5.736 1.591-7.618 2.841zm6.636-2.975 2.431 2.124-2.764 2.144zm6.595-4.549 2.803-.535-6.14 6.38zm3.299-1.238-.02-3.158 2.585-1.58zm.227-3.61 3.137-5.271-.575 3.707zm4-11.384.366 3.876-.829 1.145zm-1.904-9.709.717.672.717 5.191zm-3.634-5.922.675-.338 1.95 4.419zm-4.716-3.093 1.184-1.695 2.897 4.297zm-.184-.186-3.088-4.255 4.273 2.558zm-6.952-4.456-.019-1.85 2.973 1.536zm-.258-.05-6.795-2.792 6.776.892zm-13.441-3.119 1.082-.928 3.587.882zm-5.908 2.216 2.104-2.266 2.908.262zm-.543.208-3.186.29 5.23-2.493zm-8.76 3.66.352-.788 2.924-1.453zm-3.837 6.179-.213-2.061 3.182-3.036zm-.221.363-2.637 2.99 2.43-5.002zm-3.928 9.344-1.685.313 2.224-5.048zm-.056.271-1.612 6.487-.102-6.168zm1.424 16.15-1.914-1.575-.917-5.904zm2.683 5.457-1.222-.402-.818-3.661zm5.225 5.037-4.061-2.21-.652-2.191zm.74.696 1.758 2.241-5.375-4.21zm.658.422 5.591 3.607-3.659-1.143zm10.257 3.213 4.346 2.273-7.553-1.489zm5.214-.864 4.864 2.529-4.764.756zm12.911-.118-1.975 1.703-4.443.69zm3.649-2.553.165 1.062-2.553.79zm6.623-6.836-2.625 4.663-3.341 1.536zm.732-.778 1.758-3.247-1.88 4.454zm3.716-10.006.664-.917-1.067 3.508zm.638-6.919v-.008l-.009-.068.066-.869.068 2.25zm-.176-1.28-.664-4.81.822 2.73zm-1.976-7.501-1.212-2.747 1.697 3.2zm-3.654-5.672-2.421-3.589 3.088 3.255zm-8.087-7.761.162-.117 1.861 1.328zm-.244-.14-1.258-.651 1.398.549zm-10.621-2.744 2.358-.484 3.548 1.262zm-.77-.104-3.21-.789 5.383.342zm-6.082.059-2.504-.225 3.504-.632zm-8.838 2.238 1.433-1.075 2.31-.71zm-1.176.561-1.243.618 1.911-1.118zm-5.214 3.574-1.474 1.408 1.686-1.88zm-6.905 9.934-.656.244 2.547-4.136zm-.855.59.708-.262-1.788 4.061zm-1.761 10.539.037 2.26-.13.411zm.122 2.838.645 4.155-.889-3.39zm3.365 8.595.828 3.709-2.642-5.204zm2.657 5.3.575 1.933-1.709-2.307zm12.844 9.955.24.382-2.512-1.092zm.645.545-.295-.47 5.467 1.077zm13.392.462-.574.651-3.001-.083zm.398-.063 3.577-.556-4.109 1.158zm8.266-3.088 2.097-.649-3.699 2.03zm3.36-1.392-.165-1.065 3.066-1.41zm6.641-7.959-.144 1.431-2.016 2.405zm3.32-6.1.518-.25-2.371 4.642zm.69-.617-.581.28 1.168-3.844z"/><path fill="url(#e)" d="M248.938 171.615c-2.552-6.134-7.723-12.756-11.783-14.848 3.304 6.469 5.217 12.962 5.948 17.806 0-.014.002.012.008.055l.01.063c5.542 15.007 2.523 30.268-1.828 39.593-6.731 14.429-23.028 29.216-48.537 28.494-27.561-.779-51.839-21.204-56.372-47.956-.826-4.219 0-6.361.415-9.786-.506 2.641-.699 3.403-.952 8.095 0 .1-.006.199-.006.299 0 32.399 26.299 58.664 58.741 58.664a58.73 58.73 0 0 0 37.846-13.8 58.73 58.73 0 0 0 20.053-34.937c.1-.751.18-1.506.268-2.263 1.167-10.061-.13-20.636-3.811-29.479"/><path fill="url(#f)" d="M248.938 171.615c-2.552-6.134-7.723-12.756-11.783-14.848 3.304 6.469 5.217 12.962 5.948 17.806 0-.014.002.012.008.055l.01.063c5.542 15.007 2.523 30.268-1.828 39.593-6.731 14.429-23.028 29.216-48.537 28.494-27.561-.779-51.839-21.204-56.372-47.956-.826-4.219 0-6.361.415-9.786-.506 2.641-.699 3.403-.952 8.095 0 .1-.006.199-.006.299 0 32.399 26.299 58.664 58.741 58.664a58.73 58.73 0 0 0 37.846-13.8 58.73 58.73 0 0 0 20.053-34.937c.1-.751.18-1.506.268-2.263 1.167-10.061-.13-20.636-3.811-29.479"/><path fill="url(#g)" d="M136.384 194.822c4.532 26.752 28.81 47.177 56.372 47.956 25.508.722 41.805-14.066 48.537-28.494 4.351-9.326 7.37-24.585 1.828-39.593l-.002-.006-.008-.057c-.006-.043-.01-.069-.009-.055 0 .01.004.033.012.097 2.083 13.589-4.838 26.754-15.656 35.655l-.033.076c-21.08 17.144-41.252 10.344-45.337 7.56a36 36 0 0 1-.854-.425c-12.29-5.867-17.367-17.05-16.279-26.641-10.377 0-13.916-8.743-13.916-8.743s9.317-6.635 21.597-.864c11.373 5.345 22.054.865 22.055.864-.022-.476-10.245-4.538-14.231-8.46-2.13-2.096-3.141-3.106-4.037-3.865a18 18 0 0 0-1.521-1.147 71 71 0 0 0-1.218-.806c-4.284-2.781-12.804-2.628-13.085-2.621h-.028c-2.328-2.945-2.164-12.663-2.031-14.692-.028-.126-1.738.886-1.962 1.038a43 43 0 0 0-5.741 4.914 51 51 0 0 0-5.486 6.57l-.003.009.003-.009a49.5 49.5 0 0 0-7.882 17.773c-.028.129-2.114 9.24-1.085 13.966"/><path fill="url(#h)" d="M215.304 171.672a32 32 0 0 1 5.453 7.108c.323.242.625.484.882.72 13.316 12.256 6.339 29.59 5.819 30.825 10.818-8.901 17.739-22.066 15.655-35.654-6.642-16.536-17.905-23.204-27.103-37.722a73 73 0 0 1-1.383-2.246 18 18 0 0 1-.647-1.214 10.7 10.7 0 0 1-.877-2.321.15.15 0 0 0-.036-.104.15.15 0 0 0-.097-.053.2.2 0 0 0-.111 0c-.008.003-.02.012-.029.016-.013.005-.029.016-.043.024-2.272 1.081-15.743 22.386 2.517 40.621"/><path fill="url(#i)" d="m192.708 163.628 7.777.495 4.723 1.68 3.937 1.545 4.533 3.237 4.271 4.501 1.484 2.8c.199.122.61.387.96.624.128.09.244.18.366.269a32 32 0 0 0-5.453-7.107c-18.261-18.235-4.79-39.54-2.518-40.623l.025-.033c-14.756 8.631-19.762 24.599-20.222 32.588l-.002.045z"/><path fill="url(#j)" d="M173.685 167.876q.614.395 1.217.805a27.15 27.15 0 0 1-.165-14.338c-6.034 2.744-10.727 7.082-14.139 10.913.282-.008 8.802-.162 13.087 2.62"/><path fill="url(#k)" d="M168.211 198.736s2.712-10.091 19.416-10.091c1.806 0 6.968-5.033 7.064-6.492.096-1.46-10.682 4.48-22.055-.865-12.28-5.771-21.597.865-21.597.865s3.539 8.742 13.916 8.742c-1.089 9.591 3.989 20.775 16.279 26.641.275.131.533.274.815.4-7.174-3.703-13.098-10.701-13.838-19.2"/><path fill="url(#l)" d="M221.639 179.5a12 12 0 0 0-.882-.721c-.119-.089-.236-.179-.366-.268-3.136-2.201-8.753-4.375-14.163-3.435 21.128 10.55 15.456 46.881-13.822 45.508a26.1 26.1 0 0 1-7.643-1.472 32 32 0 0 1-1.725-.705 22 22 0 0 1-.99-.472l.04.024c4.084 2.783 24.256 9.584 45.337-7.56l.032-.076c.522-1.233 7.499-18.567-5.818-30.823"/><path fill="url(#m)" d="M248.934 171.613c-2.553-6.134-7.724-12.756-11.785-14.849 3.305 6.47 5.218 12.962 5.949 17.806 0 .01.003.033.011.098-6.641-16.536-17.905-23.204-27.103-37.722-.464-.734-.93-1.47-1.384-2.246a17 17 0 0 1-.646-1.214 10.6 10.6 0 0 1-.877-2.319.15.15 0 0 0-.036-.105.15.15 0 0 0-.097-.052.2.2 0 0 0-.11 0c-.009.003-.021.012-.03.016-.013.005-.029.016-.043.024l.025-.033c-14.756 8.632-19.759 24.646-20.219 32.635l.119-.021 7.777.495 4.377 1.557 4.283 1.668 4.534 3.237 4.265 4.499s1.469 2.755 1.49 2.802c-3.405-2.025-8.352-3.656-13.208-2.813 21.128 10.55 15.456 46.881-13.821 45.508a26.1 26.1 0 0 1-7.646-1.474 32 32 0 0 1-1.725-.704 22 22 0 0 1-.99-.473c.011.009.028.018.039.026q-.43-.207-.854-.426c.275.131.533.275.815.4-7.174-3.703-13.097-10.701-13.837-19.199 0 0 2.711-10.091 19.415-10.091 1.806 0 6.968-5.033 7.064-6.493-.022-.476-10.246-4.538-14.231-8.461-2.13-2.096-3.141-3.106-4.037-3.864q-.728-.615-1.521-1.147a27.15 27.15 0 0 1-.165-14.339c-6.034 2.744-10.728 7.083-14.14 10.913h-.027c-2.328-2.946-2.164-12.664-2.032-14.693-.027-.126-1.737.886-1.961 1.039a43 43 0 0 0-5.74 4.912 51.4 51.4 0 0 0-5.486 6.57 49.5 49.5 0 0 0-7.881 17.773c-.028.127-.052.259-.08.387-.11.517-.607 3.138-.677 3.701.006-.044-.005.043 0 0a68 68 0 0 0-.866 8.185c0 .1-.006.2-.006.3 0 32.399 26.299 58.663 58.74 58.663a58.73 58.73 0 0 0 57.901-48.735c.099-.751.179-1.505.267-2.263 1.167-10.061-.13-20.636-3.81-29.478m-5.828 3.012.01.064-.002-.006z"/><path fill="url(#n)" d="M194.69 182.152s-.249.105-.708.262c-1.147 1.939-5.226 5.639-6.787 5.633-16.703-.073-19.458 9.909-19.458 9.909a21.3 21.3 0 0 0 3.272 9.586 21.5 21.5 0 0 1-2.797-8.806s2.711-10.091 19.415-10.091c1.807 0 6.968-5.033 7.064-6.493z"/><path fill="url(#o)" d="m243.121 174.691-.003-.006-.008-.056a.3.3 0 0 0-.008-.056l.011.098a58 58 0 0 0-1.261-2.905c-.15-.321-.31-.621-.464-.935-.293-.601-.586-1.204-.893-1.78-.189-.356-.388-.693-.582-1.039-.284-.506-.565-1.017-.858-1.505-.215-.357-.436-.699-.654-1.047-.286-.455-.57-.911-.863-1.351-.231-.349-.469-.687-.704-1.028-.292-.42-.583-.842-.879-1.252q-.37-.505-.745-1.001a94 94 0 0 0-.897-1.178 125 125 0 0 0-1.697-2.112 148 148 0 0 0-.808-.968l-.439-.527.188.23c-5.09-6.003-10.613-11.536-15.546-19.323-.466-.734-.93-1.47-1.383-2.246a17 17 0 0 1-.647-1.214 12 12 0 0 1-.808-2.059c-.011-.038-.029-.096-.036-.124-.02-.078-.032-.137-.032-.137a.155.155 0 0 0-.134-.158.2.2 0 0 0-.11 0c-.008.003-.021.013-.03.017-.009.003-.029.016-.043.023a1.8 1.8 0 0 0-.356.261l-.085.076a6 6 0 0 0-.465.49q-.007.01-.016.017l.004-.003c-3.519 4.137-12.506 22.115 1.978 38.241-13.56-15.953-5.015-33.194-1.301-37.711q.296.915.723 1.775.3.619.647 1.213c.453.777.918 1.514 1.384 2.246 9.198 14.518 20.46 21.187 27.103 37.723l-.011-.098q.006.028.008.055l.008.057.002.006c5.542 15.008 2.523 30.268-1.828 39.593a48.7 48.7 0 0 1-9.33 13.379 48.8 48.8 0 0 0 10.04-14.087c4.351-9.326 7.369-24.586 1.828-39.594"/><path fill="url(#p)" d="m212.788 131.049.025-.033c-13.292 7.775-18.672 21.502-19.945 29.989 1.462-7.841 6.488-19.818 17.752-27.379.927-1.464 1.744-2.374 2.168-2.577"/><path fill="url(#q)" d="m227.425 210.401.033-.076c.521-1.234 7.498-18.569-5.819-30.825a12 12 0 0 0-.882-.72c-.12-.09-.237-.18-.366-.269-3.031-2.127-8.378-4.227-13.617-3.518l-.013.002q-.267.036-.534.082c20.89 10.431 15.58 46.063-12.84 45.539l.231.013c28.811 1.127 34.487-34.201 14.471-45.278 4.338-.042 8.533 1.542 11.124 3.213.132.085.253.169.376.254.332.23.643.46.909.686 13.787 11.726 7.494 29.319 7.022 30.573l-.029.078"/><path fill="url(#r)" d="M172.794 181.874c9.613 4.164 18.536 1.518 21.24.522-2.49.859-11.69 3.453-21.396-1.109-11.039-5.187-19.682-.351-21.317.68l-.004.003-.078.049-.007.004-.064.042-.004.002-.049.033-.006.004-.031.021-.008.005-.021.015-.008.006.027.063.005.01.034.076.006.015.051.108.005.01q.18.375.385.738v.001c1.303 2.306 5.233 7.721 13.402 7.721-1.056 9.303 3.69 20.105 15.193 26.099-10.994-6.335-15.613-17.831-14.329-26.975-8.487-.225-12.283-5.312-13.369-7.471 3.109-1.685 10.943-4.745 20.343-.672"/><path fill="url(#s)" d="m174.893 168.648-.287-.167.296.199zm-.06-.216a27.2 27.2 0 0 1-.096-14.09c-5.72 2.601-10.233 6.635-13.594 10.311 3.2-3.118 7.347-6.464 12.397-8.756-.313 2.398-.582 7.306 1.293 12.535"/><path fill="url(#t)" d="m137.8 200.971-.046-.169a54 54 0 0 1-1.37-5.981c-.448-2.058-.305-4.948 0-7.565-.227 1.359-.369 2.739-.537 5.874 0 .1-.006.199-.006.3 0 25.639 16.472 47.433 39.421 55.413-19.894-7.619-34.632-25.851-37.462-47.872"/><path fill="url(#u)" d="M137.33 195.058c-1.029-4.725 1.057-13.837 1.085-13.965a49.5 49.5 0 0 1 7.882-17.773l-.003.009.003-.009a51.4 51.4 0 0 1 5.486-6.57 43 43 0 0 1 5.74-4.912q.122-.08.248-.155c-.02 4.463.233 11.993 2.301 14.462h.027c.283-.015 8.832-.392 13.206 2.276q.625.38 1.243.772.81.512 1.557 1.107c.919.734 1.961 1.718 4.153 3.757 3.174 2.952 10.097 5.889 13.086 7.288-2.912-1.467-9.784-4.602-12.884-7.652-2.13-2.096-3.141-3.106-4.036-3.864a18 18 0 0 0-1.522-1.148 69 69 0 0 0-1.217-.805c-4.284-2.782-12.805-2.629-13.086-2.621h-.028c-2.128-2.693-2.174-11.039-2.065-14.005l.014-.317.005-.105.004-.087.011-.179q-.003-.011-.023-.01l-.018.003-.036.008-.033.011a1 1 0 0 0-.095.039l-.057.025-.121.059-.073.037-.06.031-.088.046-.048.027c-.518.278-1.175.672-1.309.763a42.7 42.7 0 0 0-5.742 4.911 51 51 0 0 0-5.486 6.571l-.003.009.003-.009a49.5 49.5 0 0 0-7.882 17.773c-.028.127-2.114 9.238-1.085 13.965 3.857 22.766 22.015 40.947 44.327 46.341-21.877-5.673-39.579-23.66-43.381-46.104"/><path fill="url(#v)" d="M248.938 171.616c-2.252-5.412-6.543-11.202-10.31-13.928l-.104-.073a16 16 0 0 0-.348-.24l-.132-.087a11 11 0 0 0-.328-.204l-.126-.076a10 10 0 0 0-.436-.24q.236.465.464.931l.28.58c2.849 5.96 4.531 11.828 5.205 16.295 0 .009.003.033.011.097 2.083 13.589-4.837 26.754-15.656 35.655l-.032.076c-13.447 10.938-26.524 12.129-35.292 10.836 8.737 1.632 22.518.944 36.711-10.599l.033-.077c10.818-8.901 17.739-22.065 15.655-35.654l-.011-.098c-.598-3.965-1.992-9.034-4.29-14.292a38.8 38.8 0 0 1 6.425 9.152c4.162 8.486 6.04 18.809 5.429 28.764-.046.749-.084 1.496-.142 2.24-3.19 27.465-26.115 49.522-55.123 51.147-3.871.218-7.755.06-11.596-.471 3.094.495 6.223.744 9.357.744 29.053 0 53.177-21.066 57.899-48.737.1-.751.179-1.505.267-2.263 1.168-10.061-.129-20.636-3.81-29.478m-5.817 3.076-.002-.006-.008-.058z"/></g><defs><linearGradient id="b" x1="153.506" x2="153.545" y1="240.204" y2="-17.5" gradientUnits="userSpaceOnUse"><stop stop-color="#fff"/><stop offset="1" stop-color="#d7bfff"/></linearGradient><linearGradient id="h" x1="210.589" x2="243.396" y1="122.911" y2="221.645" gradientUnits="userSpaceOnUse"><stop stop-color="#aaf2ff"/><stop offset=".035" stop-color="#9ef1ff"/><stop offset=".098" stop-color="#7eedff"/><stop offset=".183" stop-color="#4be6ff"/><stop offset=".284" stop-color="#04deff"/><stop offset=".29" stop-color="#0df"/><stop offset=".609" stop-color="#0090ed"/><stop offset=".894" stop-color="#0250bb"/></linearGradient><linearGradient id="i" x1="197.236" x2="216.883" y1="130.889" y2="190.018" gradientUnits="userSpaceOnUse"><stop stop-color="#aaf2ff"/><stop offset=".035" stop-color="#9ef1ff"/><stop offset=".098" stop-color="#7eedff"/><stop offset=".183" stop-color="#4be6ff"/><stop offset=".284" stop-color="#04deff"/><stop offset=".29" stop-color="#0df"/><stop offset=".74" stop-color="#0090ed"/><stop offset="1" stop-color="#0250bb"/></linearGradient><linearGradient id="m" x1="239.94" x2="157.035" y1="149.241" y2="232.146" gradientUnits="userSpaceOnUse"><stop offset=".239" stop-color="#80ebff" stop-opacity=".5"/><stop offset=".261" stop-color="#76eaff" stop-opacity=".459"/><stop offset=".359" stop-color="#4ce5ff" stop-opacity=".295"/><stop offset=".455" stop-color="#2be2ff" stop-opacity=".167"/><stop offset=".546" stop-color="#13dfff" stop-opacity=".075"/><stop offset=".631" stop-color="#05deff" stop-opacity=".019"/><stop offset=".704" stop-color="#0df" stop-opacity="0"/></linearGradient><linearGradient id="n" x1="184.247" x2="173.156" y1="177.652" y2="223.098" gradientUnits="userSpaceOnUse"><stop stop-color="#bff3ff" stop-opacity=".9"/><stop offset="1" stop-color="#80ebff" stop-opacity=".5"/></linearGradient><linearGradient id="o" x1="228.104" x2="221.241" y1="129.444" y2="266.213" gradientUnits="userSpaceOnUse"><stop stop-color="#bff3ff"/><stop offset="1" stop-color="#0df" stop-opacity="0"/></linearGradient><linearGradient id="p" x1="203.653" x2="201.448" y1="129.811" y2="173.757" gradientUnits="userSpaceOnUse"><stop stop-color="#bff3ff"/><stop offset="1" stop-color="#aaf2ff" stop-opacity=".5"/></linearGradient><linearGradient id="q" x1="213.369" x2="210.056" y1="173.934" y2="239.965" gradientUnits="userSpaceOnUse"><stop stop-color="#bff3ff"/><stop offset="1" stop-color="#0df" stop-opacity="0"/></linearGradient><linearGradient id="r" x1="171.927" x2="175.754" y1="172.589" y2="233.439" gradientUnits="userSpaceOnUse"><stop stop-color="#bff3ff" stop-opacity=".8"/><stop offset=".999" stop-color="#80ebff" stop-opacity=".2"/></linearGradient><linearGradient id="s" x1="177.99" x2="164.201" y1="150.987" y2="172.677" gradientUnits="userSpaceOnUse"><stop stop-color="#bff3ff" stop-opacity=".8"/><stop offset="1" stop-color="#80ebff" stop-opacity=".2"/></linearGradient><linearGradient id="t" x1="157.266" x2="153.023" y1="186.869" y2="271.435" gradientUnits="userSpaceOnUse"><stop stop-color="#0df" stop-opacity=".4"/><stop offset="1" stop-color="#0df" stop-opacity="0"/></linearGradient><linearGradient id="u" x1="164.355" x2="165.136" y1="139.367" y2="239.976" gradientUnits="userSpaceOnUse"><stop stop-color="#bff3ff"/><stop offset="1" stop-color="#0df" stop-opacity="0"/></linearGradient><linearGradient id="v" x1="222.692" x2="215.751" y1="153.694" y2="292.007" gradientUnits="userSpaceOnUse"><stop stop-color="#bff3ff" stop-opacity=".8"/><stop offset="1" stop-color="#0df" stop-opacity="0"/></linearGradient><radialGradient id="c" cx="0" cy="0" r="1" gradientTransform="matrix(28.6554 0 0 28.6508 194.446 192.117)" gradientUnits="userSpaceOnUse"><stop stop-color="#0df" stop-opacity=".4"/><stop offset="1" stop-color="#7542e5" stop-opacity=".15"/></radialGradient><radialGradient id="d" cx="0" cy="0" r="1" gradientTransform="matrix(29.1171 0 0 29.1125 194.011 193.634)" gradientUnits="userSpaceOnUse"><stop offset=".915" stop-color="#7542e5" stop-opacity="0"/><stop offset=".929" stop-color="#6a51e7" stop-opacity=".037"/><stop offset=".953" stop-color="#4c78ee" stop-opacity=".139"/><stop offset=".984" stop-color="#1db7f9" stop-opacity=".302"/><stop offset="1" stop-color="#0df" stop-opacity=".4"/></radialGradient><radialGradient id="e" cx="0" cy="0" r="1" gradientTransform="matrix(122.455 0 0 122.297 237.079 144.443)" gradientUnits="userSpaceOnUse"><stop stop-color="#80ebff"/><stop offset=".082" stop-color="#4de5ff"/><stop offset=".161" stop-color="#23e1ff"/><stop offset=".222" stop-color="#09deff"/><stop offset=".259" stop-color="#0df"/><stop offset=".26" stop-color="#00dcff"/><stop offset=".38" stop-color="#00b3f5"/><stop offset=".473" stop-color="#0099ef"/><stop offset=".53" stop-color="#0090ed"/><stop offset=".86" stop-color="#0060df"/></radialGradient><radialGradient id="f" cx="0" cy="0" r="1" gradientTransform="matrix(122.455 0 0 122.297 192.332 194.441)" gradientUnits="userSpaceOnUse"><stop offset=".3" stop-color="#321c64" stop-opacity=".8"/><stop offset=".371" stop-color="#212f83" stop-opacity=".511"/><stop offset=".475" stop-color="#0a47ac" stop-opacity=".141"/><stop offset=".53" stop-color="#0250bb" stop-opacity="0"/></radialGradient><radialGradient id="g" cx="0" cy="0" r="1" gradientTransform="matrix(178.963 0 0 178.733 223.758 112.868)" gradientUnits="userSpaceOnUse"><stop stop-color="#80ebff"/><stop offset=".008" stop-color="#76e7fe"/><stop offset=".035" stop-color="#57d9fb"/><stop offset=".067" stop-color="#3bcdf9"/><stop offset=".103" stop-color="#25c3f7"/><stop offset=".144" stop-color="#14bcf6"/><stop offset=".196" stop-color="#09b7f5"/><stop offset=".268" stop-color="#02b4f4"/><stop offset=".469" stop-color="#00b3f4"/><stop offset=".687" stop-color="#0080e7"/><stop offset=".844" stop-color="#0060df"/><stop offset=".995" stop-color="#592acb"/></radialGradient><radialGradient id="j" cx="0" cy="0" r="1" gradientTransform="matrix(41.9464 0 0 41.8924 190.787 139.439)" gradientUnits="userSpaceOnUse"><stop stop-color="#0df"/><stop offset=".156" stop-color="#00d6fd"/><stop offset=".382" stop-color="#00c3f9"/><stop offset=".648" stop-color="#00a4f2"/><stop offset=".792" stop-color="#0090ed"/></radialGradient><radialGradient id="k" cx="0" cy="0" r="1" gradientTransform="matrix(122.287 0 0 122.129 219.291 161.486)" gradientUnits="userSpaceOnUse"><stop offset=".286" stop-color="#80ebff"/><stop offset="1" stop-color="#00b3f4"/></radialGradient><radialGradient id="l" cx="0" cy="0" r="1" gradientTransform="matrix(111.729 0 0 111.585 189.797 154.954)" gradientUnits="userSpaceOnUse"><stop offset=".181" stop-color="#aaf2ff"/><stop offset=".427" stop-color="#0df"/><stop offset=".448" stop-color="#00d2fc"/><stop offset=".613" stop-color="#0080e7"/><stop offset=".689" stop-color="#0060df"/></radialGradient><clipPath id="a"><path fill="#fff" d="M0 0h257v256H0z"/></clipPath></defs></svg>