<svg xmlns="http://www.w3.org/2000/svg" width="257" height="256" fill="none" viewBox="0 0 257 256"><g clip-path="url(#a)"><rect width="240" height="240" fill="#7338e2" rx="120"/><path fill="#000" d="M211.679 135.057c-9.005 0-13.597-6.527-15.315-15.394-2.488-12.849-6.812-24.994-11.937-37.11-2.636-6.235-7.464-20.546-15.432-22.185-9.065-1.873-17.062 3.014-27.4 23.735-8.501 17.092-14.248 29.004-14.248 29.004v.117l-5.835-.059h-2.933s-.148 0-.148.03l-5.835.058v-.117s-5.747-11.941-14.248-29.003c-10.308-20.75-18.335-25.609-27.4-23.736-7.967 1.64-12.796 15.98-15.432 22.185-5.124 12.116-9.45 24.232-11.937 37.11-1.718 8.868-6.28 15.365-15.314 15.394-2.31 0-3.851 2.4-3.051 4.537 1.925 5.151 7.85 8.428 12.796 10.331-2.222.585-8.857-.761-9.153 2.575-.237 2.722 6.694 5.473 8.56 6.351 17.447 8.4 33.502 23.472 54.148 20.809 8.975-1.171 15.521-7.492 22.867-11.414a11.9 11.9 0 0 1 11.138 0c7.346 3.922 13.892 10.243 22.867 11.414 20.646 2.663 36.701-12.409 54.148-20.809 1.866-.907 8.768-3.629 8.56-6.351-.266-3.307-6.901-1.99-9.153-2.575 4.947-1.903 10.871-5.18 12.797-10.331.8-2.137-.77-4.508-3.051-4.537zm-146.24 4.419c-.266-2.78 5.776-4.917 7.968-5.268 13.034-2.166 30.303 2.927 34.509 16.419-11.967 10.916-36.612 3.395-42.477-11.122zm66.559 11.151c4.206-13.492 21.475-18.585 34.508-16.419 2.192.351 8.235 2.488 7.968 5.268-5.894 14.517-30.509 22.067-42.476 11.122z"/><path fill="url(#b)" d="M211.679 135.057c-9.005 0-13.597-6.527-15.315-15.394-2.488-12.849-6.812-24.994-11.937-37.11-2.636-6.235-7.464-20.546-15.432-22.185-9.065-1.873-17.062 3.014-27.4 23.735-8.501 17.092-14.248 29.004-14.248 29.004v.117l-5.835-.059h-2.933s-.148 0-.148.03l-5.835.058v-.117s-5.747-11.941-14.248-29.003c-10.308-20.75-18.335-25.609-27.4-23.736-7.967 1.64-12.796 15.98-15.432 22.185-5.124 12.116-9.45 24.232-11.937 37.11-1.718 8.868-6.28 15.365-15.314 15.394-2.31 0-3.851 2.4-3.051 4.537 1.925 5.151 7.85 8.428 12.796 10.331-2.222.585-8.857-.761-9.153 2.575-.237 2.722 6.694 5.473 8.56 6.351 17.447 8.4 33.502 23.472 54.148 20.809 8.975-1.171 15.521-7.492 22.867-11.414a11.9 11.9 0 0 1 11.138 0c7.346 3.922 13.892 10.243 22.867 11.414 20.646 2.663 36.701-12.409 54.148-20.809 1.866-.907 8.768-3.629 8.56-6.351-.266-3.307-6.901-1.99-9.153-2.575 4.947-1.903 10.871-5.18 12.797-10.331.8-2.137-.77-4.508-3.051-4.537zm-146.24 4.419c-.266-2.78 5.776-4.917 7.968-5.268 13.034-2.166 30.303 2.927 34.509 16.419-11.967 10.916-36.612 3.395-42.477-11.122zm66.559 11.151c4.206-13.492 21.475-18.585 34.508-16.419 2.192.351 8.235 2.488 7.968 5.268-5.894 14.517-30.509 22.067-42.476 11.122z"/><path fill="#3a1b73" d="m164.55 236.098 10.722 8.255 5.145-10.772z"/><path fill="#0fbae2" d="m195.123 153.477 23.374-.71-14.393-10.429z"/><path fill="#27c7d6" d="m216.761 142.26-12.657.078 14.393 10.43z"/><path fill="#44ddca" d="m231.806 151.898-7.566-10.434 10.472 6.273z"/><path fill="#42d4cb" d="m241.826 158.288-10.02-6.39 2.906-4.161z"/><path fill="#2ac4d5" d="m231.806 151.898-1.676 7.149 9.164 3.663z"/><path fill="#3dc9cc" d="m231.806 151.898 10.02 6.39-2.532 4.422z"/><path fill="#1ec4dc" d="m218.497 152.768 13.309-.87-1.676 7.149z"/><path fill="#00c9ed" d="m218.497 152.768-10.516 9.519 13.534 6.629z"/><path fill="#00c2ed" d="m195.123 153.477 23.374-.709-10.516 9.519z"/><path fill="#28bad5" d="m230.13 159.047 6.364 12.344 2.8-8.681z"/><path fill="#2babd4" d="m236.494 171.391 2.8-8.681 6.668 15.862z"/><path fill="#39afcd" d="m239.294 162.71 10.162 7.444-3.494 8.418z"/><path fill="#35b9d0" d="m241.826 158.288 1.961-.984 5.67 12.849z"/><path fill="#47b4c6" d="m249.457 170.153 2.264 2.123-7.934-14.972z"/><path fill="#36b6cf" d="m249.456 170.154-7.63-11.866-2.532 4.422z"/><path fill="#45d5ca" d="m234.712 147.737 7.114 10.551 1.961-.984z"/><path fill="#44a0c4" d="m253.985 188.677-2.264-16.401 2.774 9.207-.547 7.194z"/><path fill="#47b4c6" d="m249.456 170.153 4.529 18.524-2.265-16.401z"/><path fill="#3ca4c9" d="m245.962 178.571 8.023 10.106-4.529-18.524z"/><path fill="#4782b9" d="m253.948 188.677.547-7.194.552 18.448-1.062-11.254z"/><path fill="#477cb7" d="m252.641 203.256 2.406-3.325-1.062-11.254z"/><path fill="#495fa9" d="m253.102 211.726-1.924.927 3.869-12.722z"/><path fill="#4372b8" d="m251.178 212.653 3.869-12.722-2.407 3.324z"/><path fill="#4184c1" d="m252.641 203.256 1.344-14.579-4.122 4.863z"/><path fill="#485bac" d="m251.177 212.654 1.463-9.398-7.951 13.362z"/><path fill="#4192c3" d="m245.962 178.571 8.023 10.106-4.122 4.863z"/><path fill="#4170bb" d="m252.641 203.255-2.778-9.716-4.191 11.968z"/><path fill="#443e93" d="m244.295 228.969 6.883-16.316-6.44 11.895z"/><path fill="#484da3" d="m244.738 224.548 6.439-11.895-6.488 3.965z"/><path fill="#4855a4" d="m251.178 212.654-6.883 16.316 8.807-17.243z"/><path fill="#413587" d="m238.065 236.403 6.23-7.434.444-4.421z"/><path fill="#351967" d="m230.031 243.258 8.034-6.855-8.491 3.906z"/><path fill="#49278c" d="m183.141 248.033-8.117 1.986.248-5.666z"/><path fill="#3c2679" d="m138.013 170.923 2.238-.829-5.658 12.848z"/><path fill="#392272" d="m134.593 182.942 4.283-.797 1.375-12.051z"/><path fill="#321762" d="m134.848 198.372-.255-15.43 4.283-.797z"/><path fill="#09b7e4" d="m230.13 159.047-8.614 9.869 14.979 2.475z"/><path fill="#466cb2" d="m154.955 148.925 10.996-7.525-9.813 4.878z"/><path fill="#4294c3" d="m156.138 146.278 15.087-8.832-5.274 3.954z"/><path fill="#4595c1" d="m165.951 141.4 13.777-6.568-8.503 2.614z"/><path fill="#00c3e9" d="m218.497 152.768 3.018 16.148 8.615-9.869z"/><path fill="#42a4c6" d="m174.342 140.635 12.834-5.133-7.448-.67z"/><path fill="#46b9c8" d="m190.149 132.951-10.42 1.881 7.448.67z"/><path fill="#39d1ce" d="m224.24 141.463-7.479.796 15.045 9.639z"/><path fill="#44d3ca" d="m200.005 135.375 16.707 2.2-10.037-3.571z"/><path fill="#43e6c8" d="m224.24 141.464-7.527-3.89 8.365 3.284z"/><path fill="#472888" d="m137.214 213.613 4.939 4.064-7.304-19.304z"/><path fill="#3c1e76" d="m205.38 252.001 4.342-10.224-15.824 4.252z"/><path fill="#351966" d="m209.723 241.777 13.227 3.671.803-10.23z"/><path fill="#3e277f" d="m229.574 240.309-5.822-5.091 14.067-9.349z"/><path fill="#3cd3cd" d="m225.078 140.858-.838.605 10.474 6.275zm-8.317 1.402 7.479-.797-7.527-3.889z"/><path fill="#44bcc9" d="m190.148 132.951 9.856 2.423 6.671-1.371z"/><path fill="#41d7cb" d="m216.712 137.574-16.707-2.2 16.755 6.885z"/><path fill="#2fc5d1" d="m200.005 135.374 4.099 6.964 12.656-.079z"/><path fill="#34bdd0" d="m200.005 135.374 4.099 6.964-13.653-1.1z"/><path fill="#3ab7cb" d="m187.176 135.501 3.275 5.737 9.554-5.864z"/><path fill="#38a6cc" d="m174.342 140.635 12.834-5.133 3.275 5.736z"/><path fill="#4294c3" d="m165.951 141.4 8.392-.765 5.386-5.803z"/><path fill="#2f97d2" d="m174.342 140.635 8.708 7.947 7.401-7.344z"/><path fill="#4182c0" d="m174.342 140.635-14.177 13.294 5.786-12.529z"/><path fill="#3477ca" d="m160.165 153.929 9.046 1.505 5.131-14.799z"/><path fill="#2986d6" d="m169.211 155.434 5.131-14.799 8.709 7.947z"/><path fill="#464d9f" d="m146.707 156.799.551 5.348 7.696-13.223z"/><path fill="#463f96" d="m140.25 170.094 6.457-13.295.551 5.348z"/><path fill="#465ab0" d="m147.259 162.147 7.696-13.223 5.21 5.005z"/><path fill="#453895" d="m146.792 173.611.466-11.465-7.008 7.947z"/><path fill="#4640a7" d="m146.793 173.611.466-11.465 9.095 7.385z"/><path fill="#4452b6" d="m156.353 169.531 3.812-15.601-12.906 8.217z"/><path fill="#3761c7" d="m156.354 169.531 3.811-15.601 9.046 1.505z"/><path fill="#402c85" d="m138.876 182.145 1.374-12.051 6.543 3.517z"/><path fill="#3c2378" d="m205.381 252.001 12.163-1.888 5.406-4.665z"/><path fill="#442683" d="m133.953 201.178.895-2.806-.255-15.431z"/><path fill="#3d1d78" d="m142.152 217.677 6.026.845-4.22-9.852z"/><path fill="#452386" d="m147.775 228.877 6.333 1.218-5.93-11.573z"/><path fill="#4c2b8f" d="m137.214 213.612 7.192 14.156-2.253-10.091z"/><path fill="#492c8b" d="m133.953 201.179 3.261 12.434-2.366-15.24z"/><path fill="#422283" d="m148.177 218.522-6.025-.845 5.623 11.2z"/><path fill="#391b70" d="m138.588 195.312 3.564 22.365 1.806-9.006z"/><path fill="#402685" d="m138.876 182.145 8.503 13.155-.586-21.689z"/><path fill="#341967" d="m138.588 195.312 5.37 13.359 3.42-13.371z"/><path fill="#381b70" d="m143.959 208.671 3.42-13.371 4.252 10.565z"/><path fill="#321762" d="m148.178 218.522 16.302 10.104-12.85-22.761z"/><path fill="#502e95" d="m144.406 227.768 3.369 1.109-5.623-11.2z"/><path fill="#38196f" d="m180.417 233.581-5.146 10.772 18.627 1.676z"/><path fill="#381d70" d="m223.752 235.218-.803 10.23 6.625-5.14z"/><path fill="#371c6e" d="m138.588 195.312 8.79-.013-8.503-13.154z"/><path fill="#402588" d="m209.159 227.974.563 13.803 14.03-6.559z"/><path fill="#4235a6" d="m209.159 227.974 9.029-8.177 5.564 15.421z"/><path fill="#4339ad" d="m223.753 235.218 6.825-20.674-12.39 5.253z"/><path fill="#42339d" d="m237.819 225.869-14.067 9.349 6.825-20.674z"/><path fill="#3f2f82" d="m140.25 170.094 6.457-13.295-8.694 14.123z"/><path fill="#367cc9" d="m240.042 186.549 5.629 18.959 4.192-11.968z"/><path fill="#338ccd" d="m249.863 193.54-3.901-14.969-5.92 7.977z"/><path fill="#2d60d0" d="m230.578 214.544 15.094-9.037-14.629-6.513z"/><path fill="#275fd4" d="m230.577 214.544-13.679-13.823 1.29 19.076z"/><path fill="#4043bb" d="m209.159 227.974-10.503-9.3 19.532 1.122z"/><path fill="#321762" d="m148.178 218.522 3.453-12.657-7.672 2.806z"/><path fill="#4630a4" d="m198.657 218.674-3.405 15.076 13.907-5.776z"/><path fill="#4733aa" d="m195.251 233.75 3.405-15.076-21.74 3.084z"/><path fill="#45309d" d="m147.379 195.3 4.361-13.923-4.947-7.766z"/><path fill="#1f69da" d="m156.354 169.531 19.139-5.58-10.109 20.656z"/><path fill="#1c6edb" d="m230.577 214.544-13.679-13.823 14.144-1.727z"/><path fill="#2d70d2" d="m245.672 205.508-5.63-18.959-8.999 12.446z"/><path fill="#1b6dda" d="m218.188 219.797-15.643-15.128 14.354-3.948z"/><path fill="#2c58ca" d="m198.656 218.674 19.532 1.123-15.643-15.128z"/><path fill="#2c5acd" d="m198.656 218.674-10.698-8.713 14.587-5.292z"/><path fill="#4854a5" d="m154.954 148.925 1.183-2.647-9.43 10.521z"/><path fill="#2b9cd4" d="m236.494 171.391 3.548 15.157 5.92-7.977z"/><path fill="#3e46bf" d="m156.353 169.531 9.03 15.076-13.643-3.231z"/><path fill="#423cb4" d="m151.74 181.376 13.643 3.23-9.226 14.535z"/><path fill="#1e82db" d="m175.493 163.951 7.558-15.369-13.84 6.853z"/><path fill="#41248a" d="m147.379 195.3 8.778 3.841-4.527 6.724z"/><path fill="#4438b0" d="m166.807 216.619 1.423-21.145-12.073 3.668z"/><path fill="#3d46bf" d="m166.807 216.619 21.151-6.657-19.728-14.488z"/><path fill="#1f67d8" d="m187.958 209.962-2.061-16.349-17.668 1.86z"/><path fill="#0b87e6" d="m185.896 193.613 14.92-5.58 1.729 16.636z"/><path fill="#3e46bf" d="m176.916 221.758 21.74-3.084-10.698-8.713z"/><path fill="#4338ab" d="m176.916 221.758-10.109-5.14 21.151-6.657z"/><path fill="#0493ea" d="m175.493 163.951 12.956 1.371-5.398-16.74z"/><path fill="#01a1e9" d="m195.123 153.477-12.072-4.895 5.398 16.74z"/><path fill="#00aef1" d="m195.124 153.477 12.857 8.81-19.532 3.035z"/><path fill="#00a9f0" d="m188.449 165.322 19.159 10.162-6.792 12.55z"/><path fill="#00b6f6" d="m207.608 175.483.373-13.196-19.532 3.035z"/><path fill="#00c1f7" d="m207.608 175.483.373-13.196 13.534 6.629z"/><path fill="#0099ec" d="m188.449 165.322 12.368 22.712-21.692-10.867z"/><path fill="#088ce8" d="m185.897 193.613 14.92-5.58-21.692-10.866z"/><path fill="#00a9f1" d="m200.816 188.033 19.132-3.494-12.34-9.056z"/><path fill="#00b3f5" d="m221.515 168.916-1.567 15.623-12.34-9.056z"/><path fill="#00aaf1" d="m221.515 168.916 9.03 12.265-10.598 3.358z"/><path fill="#01ade8" d="m236.495 171.391-14.979-2.475 9.03 12.265z"/><path fill="#456ab7" d="m160.166 153.93 5.785-12.53-10.996 7.525z"/><path fill="#1498e1" d="m236.494 171.391-5.949 9.789 9.497 5.368z"/><path fill="#128de1" d="m231.042 198.994 9-12.446-9.497-5.367z"/><path fill="#009aea" d="m231.042 198.994-.497-17.813-10.598 3.357z"/><path fill="#2470d8" d="m156.354 169.531 19.139-5.58-6.282-8.516z"/><path fill="#019bec" d="m200.816 188.033 16.083 12.687 3.049-16.182z"/><path fill="#0a8ae6" d="m202.545 204.669 14.354-3.948-16.083-12.688z"/><path fill="#068de8" d="m175.493 163.951 3.632 13.216 9.324-11.845z"/><path fill="#1279e1" d="m175.493 163.951-10.109 20.656 13.741-7.44z"/><path fill="#1675df" d="m179.124 177.167-10.895 18.306 17.668-1.86z"/><path fill="#1771dd" d="m185.897 193.613 2.061 16.348 14.587-5.292z"/><path fill="#2164d6" d="m168.23 195.473 10.895-18.306-13.741 7.44z"/><path fill="#4044bd" d="m156.157 199.142 9.227-14.535 2.846 10.867z"/><path fill="#522f9a" d="m165.253 246.963 9.771 3.055-14.931-9.634z"/><path fill="#331865" d="m164.549 236.098 15.868-2.517-15.937-4.955z"/><path fill="#341867" d="m193.898 246.029 1.354-12.279-14.835-.169z"/><path fill="#371b6e" d="m209.723 241.777-4.342 10.224 17.569-6.553z"/><path fill="#452a98" d="m147.379 195.299 4.361-13.923 4.417 17.765z"/><path fill="#463cab" d="m151.74 181.377 4.614-11.846-9.561 4.08z"/><path fill="#088be7" d="m219.947 184.538-3.049 16.182 14.144-1.726z"/><path fill="#442590" d="m156.157 199.141-4.526 6.723 15.176 10.754z"/><path fill="#3e1f80" d="m151.631 205.865 12.85 22.761 2.326-12.007z"/><path fill="#3d207e" d="m176.916 221.758-10.11-5.139-2.326 12.007z"/><path fill="#391d72" d="m176.916 221.758-12.436 6.868 15.937 4.955z"/><path fill="#402284" d="m176.916 221.758 3.501 11.823 14.835.169z"/><path fill="#361a68" d="m195.252 233.75-1.354 12.279 15.824-4.252z"/><path fill="#412084" d="m195.252 233.75 14.47 8.027-.563-13.803z"/><path fill="#48278a" d="m175.272 244.353-15.179-3.969 14.931 9.635z"/><path fill="#462587" d="m175.272 244.353-10.722-8.255-4.457 4.286z"/><path fill="#432484" d="m193.898 246.028.235 7.757 11.247-1.784z"/><path fill="#412280" d="m193.898 246.029-18.627-1.676 7.87 3.68z"/><path fill="#432384" d="m193.898 246.028-10.757 2.004 10.992 5.753z"/><path fill="#45278a" d="m183.141 248.033-8.117 1.986 19.11 3.766z"/><path fill="#46298b" d="m175.024 250.019-9.771-3.056 10.802 4.7zm0 0 1.032 1.644 18.078 2.122z"/><path fill="#4a268d" d="m154.108 230.095-6.333-1.218 12.318 11.507z"/><path fill="#4e2892" d="m147.775 228.877-3.369-1.109 5.073 6.837z"/><path fill="#4e2893" d="m147.775 228.877 1.704 5.728 10.614 5.779z"/><path fill="#4e2a93" d="m149.479 234.605 15.774 12.358-5.16-6.579z"/><path fill="#4f2b94" d="m149.479 234.605 7.014 6.432 8.76 5.926z"/><path fill="#3c1b75" d="m148.178 218.522 5.93 11.573 10.372-1.469z"/><path fill="#3a1b72" d="m154.107 230.095 10.442 6.003-.069-7.472z"/><path fill="#451f86" d="m154.107 230.095 5.985 10.289 4.457-4.286z"/><path fill="#442c87" d="m194.133 253.785 9.439.263 1.808-2.047z"/><path fill="#442a86" d="m203.572 254.048 13.971-3.936-12.163 1.889z"/><path fill="#4341a3" d="m244.69 216.618-14.112-2.074 7.242 11.325z"/><path fill="#403696" d="m244.69 216.619-6.871 9.25 6.919-1.321z"/><path fill="#3d287e" d="m229.574 240.309 8.491-3.906 6.673-11.855z"/><path fill="#43338c" d="m237.819 225.869-8.245 14.44 15.164-15.761z"/><path fill="#4259ba" d="m245.672 205.507-15.094 9.037 14.112 2.074z"/><path fill="#4355b6" d="m245.671 205.507-.982 11.112 7.951-13.363z"/><path fill="#351966" d="m138.876 182.145-4.027 16.227 3.739-3.06z"/><path fill="#3c2074" d="m134.849 198.373 7.304 19.304-3.565-22.365z"/><path fill="#28c7d6" d="m216.761 142.26 1.736 10.508 13.309-.87z"/><path fill="#19aadd" d="m190.451 141.238 4.672 12.239 8.981-11.139z"/><path fill="#1aa7dd" d="m190.452 141.238-7.401 7.344 12.073 4.895z"/><path fill="#371e6d" d="m222.95 245.448-5.406 4.664 12.487-6.854z"/><path fill="#321762" d="m229.574 240.309-6.625 5.139 7.082-2.19z"/><path fill="#44bcc9" d="m190.149 132.951-2.973 2.551 12.829-.128z"/><path fill="url(#c)" d="M255.047 199.919v-.028l-.55-18.361v-.021l-.003-.019-.005-.025v-.005l-2.761-9.163v-.002l-.003-.005-.005-.015-.009-.02q0-.004-.003-.008l-7.902-14.907-.005-.007-.019-.028-.005-.008-.009-.009-.005-.007-9.033-9.524-.005-.004-.006-.006-.017-.014-.012-.01h-.001l-.002-.002-9.588-6.846-.005-.003-.009-.006-.02-.011-.021-.01-.004-.002-8.322-3.267-.005-.002h-.004l-.004-.002h-.002l-9.991-3.556-.01-.002c-.003-.003-.012-.004-.019-.006l-.017-.004-.019-.002-.009-.001-16.452-1.048h-.007l-.021.001-.027.002h-.01l-10.374 1.873-.006.002-.01.001-.006.002-.019.005-8.456 2.601h-.003l-.019.008-.022.009-.01.005-.004.002-15.02 8.793-.002.002-.013.009-.011.007-.01.009-.009.007-.011.011-.008.008-.004.004-9.385 10.469-.003.006-.007.007-.006.009-.008.012-.005.006-.003.005-8.652 14.055-.004.008q-.01.015-.016.031l-.007.02q0 .004-.003.008l-3.405 11.966v.005q0 .004-.003.008v.007l-.002.019-.002.02v.005l-.64 18.155v.028l.002.017.004.022.002.011.002.007 3.244 12.37.001.005.003.009.011.026.005.013v.004l7.158 14.088.001.002.005.007.014.023.004.007 5.047 6.802.001.001.001.002.003.003.006.008.015.015.011.013 6.982 6.403.018.013q.007.007.014.011l8.721 5.9.005.003h.003l.02.012.011.006.004.002 10.754 4.678.011.004.024.008.013.003.019.004.011.002 17.997 2.113h.024l9.4.267h.01a.3.3 0 0 0 .053-.005l.011-.004h.008l13.908-3.918q.004 0 .008-.003l.012-.003.011-.005.007-.004.017-.007h.002l.006-.004L230 243.275l.004-.003.005-.002.021-.015.016-.012 7.998-6.823.008-.009.011-.01.01-.01.003-.004 6.201-7.397v-.001l.003-.004.022-.032.007-.012.002-.003 8.768-17.166.005-.012.009-.021.002-.009.006-.022.004-.015 1.935-11.739v-.01l.002-.01c.001-.003.005-.011.005-.015m-98.214 40.691-1.809-1.659 4.068 3.187zm26.395 6.895-6.355-2.972 15.045 1.353zm2.32-54.124-16.689 1.758 10.291-17.292zm-5.826-15.572 20.389 10.213-14.024 5.245zm5.978 16.102 1.94 15.385-18.566-13.634zm1.697 15.879-20.166 6.347 1.357-20.16zm-1.116-15.623 15.631 10.38-13.696 4.97zm.249-.486 14.025-5.246 1.625 15.639zm21.549-18.066 12.998-6.139-1.465 14.602zm11.087 8.81-17.869 3.264 6.344-11.722zm-18.378 3.063-11.64-21.377 18.033 9.564zm-.652-.061-20.522-10.281 8.822-11.206zm-31.689 7.34-2.616-9.983 12.625-6.836zm-1.729 20.874-9.974-16.368 11.307-3.435zm20.365-5.185-10.146 10.84-9.291-4.722zm15.024-5.403-3.619 13.035-9.958-8.109zm-.982-16.384 15.085 11.9-13.463 3.703zm.303-.452 18.067-3.3-2.879 15.28zm18.718-4.022 1.449-14.439 8.346 11.336zm9.976-2.592.462 16.536-10.3-13.418zm-22.288-6.473.347-12.273 12.588 6.165zm-.543-.011-17.967-9.527 18.315-2.846zm-27.977 1.53-3.369-12.253 12.013 1.27zm-.44.455-12.744 6.9 9.375-19.155zm-10.855 18.178-11.068 3.362 8.458-13.325zm-2.005 20.251-13.818-9.79 4.122-6.122zm1.115 1.388 9.287 4.721-11.423 6.309zm20.884-6.661 9.973 8.121-20.266 2.874zm14.636-5.127 14.719 14.233-18.378-1.056zm.391-.378 13.51-3.716 1.213 17.954zm16.948-19.527 10.386 13.531-13.24 1.616zm10.68-3.518 8.771 4.957-8.311 11.495zm.093-.571 5.432-8.938 3.239 13.839zm-.399-.389-8.353-11.347 13.856 2.29zM208.4 162.361l9.811-8.883 2.816 15.067zm-19.412 2.734 6.225-11.046 11.991 8.216zm-12.994-1.239 7.056-14.349 5.04 15.628zm-10.504 20.222-8.551-14.276 18.126-5.285zm-9.05 14.356-4.137-16.636 12.778 3.025zm-4.556 6.799-3.793-9.426 7.831 3.427zm14.746 11.401-2.142 11.057-11.832-20.959zm10.199 5.397 3.245 10.96-14.77-4.594zm21.456-3.146-3.217 14.242-17.322-11.329zm19.133 1.027-8.328 7.542-9.687-8.578zm-.3-18.514 12.822 12.958-11.612 4.924zm.262-.508 13.216-1.613-.434 14.531zm22.353-13.704 5.28 17.78-13.719-6.108zm-2.991-15.024 8.611 6.53-5.384 7.255zm-14.823-3.324 7.993-9.155 5.905 11.453zm-.361-.413-2.797-14.964 10.781 5.819zm-13.661-6.343-11.938-8.178 21.701-.66zm-19.353 2.692-5.004-15.52 11.193 4.538zm-13.012-1.211-5.796-7.858 12.768-6.323zm-.403.369-17.753 5.176 11.926-13.075zm-10.179 20.303-12.651-2.996 4.277-10.984zm-9.018 14.411-8.01-3.505 3.98-12.704zm-4.466 7.005-6.89 2.52 3.072-12.008zm12.392 22.029-15.157-9.394 3.21-11.767zm15.432 5.635-14.337 2.275-.062-6.752zm-1.824-11.052 16.855 11.024-13.637-.155zm21.336-3.194 9.786 8.667-12.959 5.382zm19.162 1.083 5.171 14.335-13.564-6.734zm.462-.324 11.545-4.894-6.361 19.264zm12.713-20.446 13.716 6.107-14.151 8.472zm9.184-12.123 8.969 6.383-3.828 10.928zm-.101-.739 5.39-7.264 3.552 13.629zm-3.597-15.129 2.502-7.761 5.962 14.18zm-.377-.606-5.703-11.061 8.211 3.283zm-16.9-17.625 11.942-.781-1.504 6.414zm-23.645.208 8.408-10.428 13.474 9.764zm-.497-.249-4.329-11.34 12.65 1.019zm-.561.053-11.06-4.484 6.779-6.727zm-24.846 1.897 4.755-13.717 8.071 7.365zm-12.758 13.602 3.483-14.253 8.264 1.375zm-5.168 12.162-4.465-7.008 8.629-3.682zm-.238.637-3.817 12.185-.513-18.98zm-4.395 14.093-3.112 12.168-4.887-12.156zm-8.123-.53.261-11.946 7.715 11.934zm12.305 11.212-3.094 11.341-3.779-8.827zm12.414 22.059-9.393 1.331-5.37-10.48zm.51.476.061 6.655-9.299-5.347zm15.666 4.97-4.755 9.954-9.907-7.628zm.554.101 12.565 11.6-17.359-1.563zm.617-.171 13.762.156-1.256 11.391zm27.654-5.461.525 12.869-13.491-7.484zm.547.047 13.612 6.757-13.087 6.118zm21.111-13.188 6.757 10.568-13.127 8.723zm.47-.273 13.011 1.912-6.334 8.529zm.243-.513 13.916-8.332-.905 10.245zm18.38-19.855 2.458 8.598-6.167 1.992zm-3.269-14.621 7.048 8.877-3.621 4.273zm-6.596-16.169 9.154 6.705-3.148 7.582zm-9.435-4.61 1.475-6.294 6.592 9.519zm-11.67-6.372-1.59-9.617 13.769 8.821zm-.604-.321-13.123-9.509 11.539-.072zM191.32 141.27l8.566-5.258 3.676 6.244zm-8.226 7.14-7.931-7.238 14.672.549zm-13.951 6.891-8.237-1.371 12.91-12.106zm-12.781 13.857-8.428-6.843 11.961-7.615zm-.358.408-8.708 3.716.425-10.441zm-8.712 24.764-7.824-12.104 7.285-7.852zm-3.389 14.299-1.485 7.405-2.93-18.386zm.377.885 3.667 8.56-5.237-.734zm9.513 20.046-5.528-1.064.352-9.038zm10.442 6.402-3.927 3.776-5.274-9.065zm.468.303 9.43 7.259-13.349-3.491zm30.771-2.26 13.462 7.468-14.722 3.955zm27.839 1.469-.737 9.391-12.143-3.369zm13.508-8.889-7.475 13.091-5.279-4.614zm7.377-9.255.042 6.855-5.982 1.142zm1.499-11.673 6.081-1.965-6.938 11.66zm4.219-12.052 3.452-4.073-1.126 12.21zm-3.873-15.01 3.1-7.466 4.016 16.429zm-6.594-15.822 2.177-3.803 6.564 10.205zm-.378-.433-6.442-9.3 8.62 5.496zm-21.614-19.662 6.521-.694 6.597 9.098zm-13.24-.382-3.592-6.103 14.683 6.034zm-13.65-1.2-2.893-5.067 11.33-.112zm-.575.088-14.27-.534 11.368-4.547zm-28.842 11.772 5.11-11.066 7.411-.675zm-.918.692-4.671-4.488 9.858-6.745zm-.35.416-11.614 7.395 6.925-11.899zm-13.129 19.192-5.829-3.134 6.244-7.08zm-.184.518-7.08 7.631 1.229-10.777zm-7.999 21.4-2.993 2.449 3.222-12.988zm.075.64 3.055 19.17-6.261-16.547zm9.46 22.83-.351 9.009-4.892-9.744zm6.011 11.53 4.969 8.541-10.227-9.553zm20.961 14.156-.216 4.949-13.042-8.415zm.535.212 6.768 3.164-6.981 1.709zm18.027 1.574.21 6.941-9.836-5.147zm15.547-4.15-3.99 9.395-10.551-5.488zm.625-.082 12.134 3.367-16.117 6.013zm14.038-6.294 5.141 4.495-5.849 4.538zm13.95-9.624 5.926-1.132-12.988 13.499zm6.978-2.62-.04-6.681 5.468-3.341zm.481-7.636 6.636-11.153-1.221 7.844zm8.462-24.085.774 8.2-1.754 2.423zm-4.03-20.544 1.518 1.423 1.516 10.985zm-7.685-12.527 1.427-.716 4.126 9.349zm-9.982-6.545 2.504-3.586 6.131 9.092zm-.389-.392-6.529-9.004 9.037 5.414zm-14.705-9.428-.04-3.914 6.289 3.25zm-.545-.106-14.374-5.906 14.333 1.887zm-28.433-6.598 2.289-1.964 7.588 1.865zm-12.498 4.687 4.45-4.794 6.152.553zm-1.149.44-6.739.614 11.064-5.273zm-18.531 7.746.745-1.667 6.184-3.074zm-8.117 13.073-.45-4.362 6.727-6.423zm-.468.767-5.578 6.325 5.14-10.581zm-8.31 19.768-3.561.663 4.704-10.681zm-.118.574-3.406 13.726-.217-13.052zm3.012 34.17-4.048-3.332-1.94-12.492zm5.676 11.546-2.585-.851-1.73-7.746zm11.052 10.657-8.591-4.677-1.379-4.637zm1.567 1.471 3.72 4.743-11.37-8.908zm1.392.894 11.827 7.631-7.739-2.419zm21.698 6.797 9.191 4.81-15.978-3.149zm11.03-1.828 10.289 5.352-10.079 1.599zm27.312-.249-4.178 3.604-9.399 1.459zm7.72-5.403.348 2.248-5.4 1.67zm14.011-14.461-5.553 9.867-7.069 3.251zm1.549-1.644 3.718-6.869-3.975 9.424zm7.86-21.172 1.404-1.94-2.257 7.422zm1.351-14.64v-.016l-.02-.144.14-1.839.142 4.761zm-.373-2.708-1.406-10.177 1.74 5.774zm-4.181-15.871-2.563-5.81 3.589 6.771zm-7.731-12.002-5.121-7.595 6.533 6.887zm-17.106-16.42.342-.248 3.936 2.811zm-.517-.297-2.661-1.375 2.958 1.161zm-22.469-5.803 4.988-1.025 7.506 2.67zm-1.627-.219-6.792-1.67 11.389.725zm-12.867.124-5.297-.476 7.412-1.338zm-18.695 4.734 3.031-2.272 4.887-1.502zm-2.488 1.187-2.629 1.306 4.042-2.365zm-11.031 7.563-3.118 2.979 3.566-3.98zm-14.608 21.017-1.387.513 5.388-8.752zm-1.807 1.248 1.497-.555-3.784 8.594zm-3.726 22.297.079 4.783-.277.87zm.26 6.006 1.365 8.791-1.88-7.172zm7.118 18.185 1.753 7.846-5.593-11.007zm5.622 11.212 1.217 4.09-3.622-4.882zm27.17 21.063.508.809-5.317-2.312zm1.365 1.154-.624-.995 11.565 2.279zm28.329.977-1.216 1.376-6.348-.177zm.843-.134 7.568-1.175-8.691 2.448zm17.486-6.534 4.438-1.373-7.826 4.297zm7.109-2.946-.349-2.252 6.485-2.983zm14.047-16.838-.304 3.028-4.265 5.089zm7.022-12.906 1.095-.528-5.016 9.821zm1.459-1.305-1.23.593 2.473-8.132z"/><path fill="url(#d)" d="M255.047 199.919v-.028l-.55-18.361v-.021l-.003-.019-.005-.025v-.005l-2.761-9.163v-.002l-.003-.005-.005-.015-.009-.02q0-.004-.003-.008l-7.902-14.907-.005-.007-.019-.028-.005-.008-.009-.009-.005-.007-9.033-9.524-.005-.004-.006-.006-.017-.014-.012-.01h-.001l-.002-.002-9.588-6.846-.005-.003-.009-.006-.02-.011-.021-.01-.004-.002-8.322-3.267-.005-.002h-.004l-.004-.002h-.002l-9.991-3.556-.01-.002c-.003-.003-.012-.004-.019-.006l-.017-.004-.019-.002-.009-.001-16.452-1.048h-.007l-.021.001-.027.002h-.01l-10.374 1.873-.006.002-.01.001-.006.002-.019.005-8.456 2.601h-.003l-.019.008-.022.009-.01.005-.004.002-15.02 8.793-.002.002-.013.009-.011.007-.01.009-.009.007-.011.011-.008.008-.004.004-9.385 10.469-.003.006-.007.007-.006.009-.008.012-.005.006-.003.005-8.652 14.055-.004.008q-.01.015-.016.031l-.007.02q0 .004-.003.008l-3.405 11.966v.005q0 .004-.003.008v.007l-.002.019-.002.02v.005l-.64 18.155v.028l.002.017.004.022.002.011.002.007 3.244 12.37.001.005.003.009.011.026.005.013v.004l7.158 14.088.001.002.005.007.014.023.004.007 5.047 6.802.001.001.001.002.003.003.006.008.015.015.011.013 6.982 6.403.018.013q.007.007.014.011l8.721 5.9.005.003h.003l.02.012.011.006.004.002 10.754 4.678.011.004.024.008.013.003.019.004.011.002 17.997 2.113h.024l9.4.267h.01a.3.3 0 0 0 .053-.005l.011-.004h.008l13.908-3.918q.004 0 .008-.003l.012-.003.011-.005.007-.004.017-.007h.002l.006-.004L230 243.275l.004-.003.005-.002.021-.015.016-.012 7.998-6.823.008-.009.011-.01.01-.01.003-.004 6.201-7.397v-.001l.003-.004.022-.032.007-.012.002-.003 8.768-17.166.005-.012.009-.021.002-.009.006-.022.004-.015 1.935-11.739v-.01l.002-.01c.001-.003.005-.011.005-.015m-98.214 40.691-1.809-1.659 4.068 3.187zm26.395 6.895-6.355-2.972 15.045 1.353zm2.32-54.124-16.689 1.758 10.291-17.292zm-5.826-15.572 20.389 10.213-14.024 5.245zm5.978 16.102 1.94 15.385-18.566-13.634zm1.697 15.879-20.166 6.347 1.357-20.16zm-1.116-15.623 15.631 10.38-13.696 4.97zm.249-.486 14.025-5.246 1.625 15.639zm21.549-18.066 12.998-6.139-1.465 14.602zm11.087 8.81-17.869 3.264 6.344-11.722zm-18.378 3.063-11.64-21.377 18.033 9.564zm-.652-.061-20.522-10.281 8.822-11.206zm-31.689 7.34-2.616-9.983 12.625-6.836zm-1.729 20.874-9.974-16.368 11.307-3.435zm20.365-5.185-10.146 10.84-9.291-4.722zm15.024-5.403-3.619 13.035-9.958-8.109zm-.982-16.384 15.085 11.9-13.463 3.703zm.303-.452 18.067-3.3-2.879 15.28zm18.718-4.022 1.449-14.439 8.346 11.336zm9.976-2.592.462 16.536-10.3-13.418zm-22.288-6.473.347-12.273 12.588 6.165zm-.543-.011-17.967-9.527 18.315-2.846zm-27.977 1.53-3.369-12.253 12.013 1.27zm-.44.455-12.744 6.9 9.375-19.155zm-10.855 18.178-11.068 3.362 8.458-13.325zm-2.005 20.251-13.818-9.79 4.122-6.122zm1.115 1.388 9.287 4.721-11.423 6.309zm20.884-6.661 9.973 8.121-20.266 2.874zm14.636-5.127 14.719 14.233-18.378-1.056zm.391-.378 13.51-3.716 1.213 17.954zm16.948-19.527 10.386 13.531-13.24 1.616zm10.68-3.518 8.771 4.957-8.311 11.495zm.093-.571 5.432-8.938 3.239 13.839zm-.399-.389-8.353-11.347 13.856 2.29zM208.4 162.361l9.811-8.883 2.816 15.067zm-19.412 2.734 6.225-11.046 11.991 8.216zm-12.994-1.239 7.056-14.349 5.04 15.628zm-10.504 20.222-8.551-14.276 18.126-5.285zm-9.05 14.356-4.137-16.636 12.778 3.025zm-4.556 6.799-3.793-9.426 7.831 3.427zm14.746 11.401-2.142 11.057-11.832-20.959zm10.199 5.397 3.245 10.96-14.77-4.594zm21.456-3.146-3.217 14.242-17.322-11.329zm19.133 1.027-8.328 7.542-9.687-8.578zm-.3-18.514 12.822 12.958-11.612 4.924zm.262-.508 13.216-1.613-.434 14.531zm22.353-13.704 5.28 17.78-13.719-6.108zm-2.991-15.024 8.611 6.53-5.384 7.255zm-14.823-3.324 7.993-9.155 5.905 11.453zm-.361-.413-2.797-14.964 10.781 5.819zm-13.661-6.343-11.938-8.178 21.701-.66zm-19.353 2.692-5.004-15.52 11.193 4.538zm-13.012-1.211-5.796-7.858 12.768-6.323zm-.403.369-17.753 5.176 11.926-13.075zm-10.179 20.303-12.651-2.996 4.277-10.984zm-9.018 14.411-8.01-3.505 3.98-12.704zm-4.466 7.005-6.89 2.52 3.072-12.008zm12.392 22.029-15.157-9.394 3.21-11.767zm15.432 5.635-14.337 2.275-.062-6.752zm-1.824-11.052 16.855 11.024-13.637-.155zm21.336-3.194 9.786 8.667-12.959 5.382zm19.162 1.083 5.171 14.335-13.564-6.734zm.462-.324 11.545-4.894-6.361 19.264zm12.713-20.446 13.716 6.107-14.151 8.472zm9.184-12.123 8.969 6.383-3.828 10.928zm-.101-.739 5.39-7.264 3.552 13.629zm-3.597-15.129 2.502-7.761 5.962 14.18zm-.377-.606-5.703-11.061 8.211 3.283zm-16.9-17.625 11.942-.781-1.504 6.414zm-23.645.208 8.408-10.428 13.474 9.764zm-.497-.249-4.329-11.34 12.65 1.019zm-.561.053-11.06-4.484 6.779-6.727zm-24.846 1.897 4.755-13.717 8.071 7.365zm-12.758 13.602 3.483-14.253 8.264 1.375zm-5.168 12.162-4.465-7.008 8.629-3.682zm-.238.637-3.817 12.185-.513-18.98zm-4.395 14.093-3.112 12.168-4.887-12.156zm-8.123-.53.261-11.946 7.715 11.934zm12.305 11.212-3.094 11.341-3.779-8.827zm12.414 22.059-9.393 1.331-5.37-10.48zm.51.476.061 6.655-9.299-5.347zm15.666 4.97-4.755 9.954-9.907-7.628zm.554.101 12.565 11.6-17.359-1.563zm.617-.171 13.762.156-1.256 11.391zm27.654-5.461.525 12.869-13.491-7.484zm.547.047 13.612 6.757-13.087 6.118zm21.111-13.188 6.757 10.568-13.127 8.723zm.47-.273 13.011 1.912-6.334 8.529zm.243-.513 13.916-8.332-.905 10.245zm18.38-19.855 2.458 8.598-6.167 1.992zm-3.269-14.621 7.048 8.877-3.621 4.273zm-6.596-16.169 9.154 6.705-3.148 7.582zm-9.435-4.61 1.475-6.294 6.592 9.519zm-11.67-6.372-1.59-9.617 13.769 8.821zm-.604-.321-13.123-9.509 11.539-.072zM191.32 141.27l8.566-5.258 3.676 6.244zm-8.226 7.14-7.931-7.238 14.672.549zm-13.951 6.891-8.237-1.371 12.91-12.106zm-12.781 13.857-8.428-6.843 11.961-7.615zm-.358.408-8.708 3.716.425-10.441zm-8.712 24.764-7.824-12.104 7.285-7.852zm-3.389 14.299-1.485 7.405-2.93-18.386zm.377.885 3.667 8.56-5.237-.734zm9.513 20.046-5.528-1.064.352-9.038zm10.442 6.402-3.927 3.776-5.274-9.065zm.468.303 9.43 7.259-13.349-3.491zm30.771-2.26 13.462 7.468-14.722 3.955zm27.839 1.469-.737 9.391-12.143-3.369zm13.508-8.889-7.475 13.091-5.279-4.614zm7.377-9.255.042 6.855-5.982 1.142zm1.499-11.673 6.081-1.965-6.938 11.66zm4.219-12.052 3.452-4.073-1.126 12.21zm-3.873-15.01 3.1-7.466 4.016 16.429zm-6.594-15.822 2.177-3.803 6.564 10.205zm-.378-.433-6.442-9.3 8.62 5.496zm-21.614-19.662 6.521-.694 6.597 9.098zm-13.24-.382-3.592-6.103 14.683 6.034zm-13.65-1.2-2.893-5.067 11.33-.112zm-.575.088-14.27-.534 11.368-4.547zm-28.842 11.772 5.11-11.066 7.411-.675zm-.918.692-4.671-4.488 9.858-6.745zm-.35.416-11.614 7.395 6.925-11.899zm-13.129 19.192-5.829-3.134 6.244-7.08zm-.184.518-7.08 7.631 1.229-10.777zm-7.999 21.4-2.993 2.449 3.222-12.988zm.075.64 3.055 19.17-6.261-16.547zm9.46 22.83-.351 9.009-4.892-9.744zm6.011 11.53 4.969 8.541-10.227-9.553zm20.961 14.156-.216 4.949-13.042-8.415zm.535.212 6.768 3.164-6.981 1.709zm18.027 1.574.21 6.941-9.836-5.147zm15.547-4.15-3.99 9.395-10.551-5.488zm.625-.082 12.134 3.367-16.117 6.013zm14.038-6.294 5.141 4.495-5.849 4.538zm13.95-9.624 5.926-1.132-12.988 13.499zm6.978-2.62-.04-6.681 5.468-3.341zm.481-7.636 6.636-11.153-1.221 7.844zm8.462-24.085.774 8.2-1.754 2.423zm-4.03-20.544 1.518 1.423 1.516 10.985zm-7.685-12.527 1.427-.716 4.126 9.349zm-9.982-6.545 2.504-3.586 6.131 9.092zm-.389-.392-6.529-9.004 9.037 5.414zm-14.705-9.428-.04-3.914 6.289 3.25zm-.545-.106-14.374-5.906 14.333 1.887zm-28.433-6.598 2.289-1.964 7.588 1.865zm-12.498 4.687 4.45-4.794 6.152.553zm-1.149.44-6.739.614 11.064-5.273zm-18.531 7.746.745-1.667 6.184-3.074zm-8.117 13.073-.45-4.362 6.727-6.423zm-.468.767-5.578 6.325 5.14-10.581zm-8.31 19.768-3.561.663 4.704-10.681zm-.118.574-3.406 13.726-.217-13.052zm3.012 34.17-4.048-3.332-1.94-12.492zm5.676 11.546-2.585-.851-1.73-7.746zm11.052 10.657-8.591-4.677-1.379-4.637zm1.567 1.471 3.72 4.743-11.37-8.908zm1.392.894 11.827 7.631-7.739-2.419zm21.698 6.797 9.191 4.81-15.978-3.149zm11.03-1.828 10.289 5.352-10.079 1.599zm27.312-.249-4.178 3.604-9.399 1.459zm7.72-5.403.348 2.248-5.4 1.67zm14.011-14.461-5.553 9.867-7.069 3.251zm1.549-1.644 3.718-6.869-3.975 9.424zm7.86-21.172 1.404-1.94-2.257 7.422zm1.351-14.64v-.016l-.02-.144.14-1.839.142 4.761zm-.373-2.708-1.406-10.177 1.74 5.774zm-4.181-15.871-2.563-5.81 3.589 6.771zm-7.731-12.002-5.121-7.595 6.533 6.887zm-17.106-16.42.342-.248 3.936 2.811zm-.517-.297-2.661-1.375 2.958 1.161zm-22.469-5.803 4.988-1.025 7.506 2.67zm-1.627-.219-6.792-1.67 11.389.725zm-12.867.124-5.297-.476 7.412-1.338zm-18.695 4.734 3.031-2.272 4.887-1.502zm-2.488 1.187-2.629 1.306 4.042-2.365zm-11.031 7.563-3.118 2.979 3.566-3.98zm-14.608 21.017-1.387.513 5.388-8.752zm-1.807 1.248 1.497-.555-3.784 8.594zm-3.726 22.297.079 4.783-.277.87zm.26 6.006 1.365 8.791-1.88-7.172zm7.118 18.185 1.753 7.846-5.593-11.007zm5.622 11.212 1.217 4.09-3.622-4.882zm27.17 21.063.508.809-5.317-2.312zm1.365 1.154-.624-.995 11.565 2.279zm28.329.977-1.216 1.376-6.348-.177zm.843-.134 7.568-1.175-8.691 2.448zm17.486-6.534 4.438-1.373-7.826 4.297zm7.109-2.946-.349-2.252 6.485-2.983zm14.047-16.838-.304 3.028-4.265 5.089zm7.022-12.906 1.095-.528-5.016 9.821zm1.459-1.305-1.23.593 2.473-8.132z"/></g><defs><radialGradient id="c" cx="0" cy="0" r="1" gradientTransform="translate(188.837 198.254)scale(68.8528)" gradientUnits="userSpaceOnUse"><stop offset=".467" stop-color="#0df" stop-opacity=".2"/><stop offset=".606" stop-color="#06dffa" stop-opacity=".214"/><stop offset=".748" stop-color="#18e7ec" stop-opacity=".256"/><stop offset=".889" stop-color="#35f2d5" stop-opacity=".326"/><stop offset="1" stop-color="#54ffbd" stop-opacity=".4"/></radialGradient><radialGradient id="d" cx="0" cy="0" r="1" gradientTransform="translate(200.641 183.104)scale(73.5479)" gradientUnits="userSpaceOnUse"><stop offset=".434" stop-color="#7542e5" stop-opacity="0"/><stop offset=".561" stop-color="#7844e6" stop-opacity=".013"/><stop offset=".665" stop-color="#804be8" stop-opacity=".053"/><stop offset=".761" stop-color="#8d57ed" stop-opacity=".12"/><stop offset=".852" stop-color="#a068f3" stop-opacity=".214"/><stop offset=".939" stop-color="#b97efb" stop-opacity=".335"/><stop offset=".978" stop-color="#c689ff" stop-opacity=".4"/></radialGradient><linearGradient id="b" x1="153.506" x2="153.545" y1="240.204" y2="-17.5" gradientUnits="userSpaceOnUse"><stop stop-color="#fff"/><stop offset="1" stop-color="#d7bfff"/></linearGradient><clipPath id="a"><path fill="#fff" d="M0 0h257v256H0z"/></clipPath></defs></svg>